<svg xmlns="http://www.w3.org/2000/svg" viewBox="0 0 141.73228 141.73228">
    <defs>
        <style>
            .a31ba277-da63-4916-ab14-6d7f22b28af3 {
                fill: #dbdce6;
            }
        </style>
    </defs>
    <path
        class="a31ba277-da63-4916-ab14-6d7f22b28af3"
        d="M121.771,16.11765a3.50791,3.50791,0,0,1,3.50394,3.50394v102.413a3.50791,3.50791,0,0,1-3.50394,3.50394H19.358a3.50791,3.50791,0,0,1-3.50394-3.50394V19.62159A3.50791,3.50791,0,0,1,19.358,16.11765H121.771m0-5H19.358a8.50392,8.50392,0,0,0-8.50394,8.50394v102.413a8.50393,8.50393,0,0,0,8.50394,8.50394H121.771a8.50394,8.50394,0,0,0,8.50395-8.50394V19.62159a8.50393,8.50393,0,0,0-8.50395-8.50394Z"
    />
    <path
        class="a31ba277-da63-4916-ab14-6d7f22b28af3"
        d="M99.00142,102.88945,71.40382,81.91451,43.80157,102.89535c-.77471.98311-2.13279.31155-2.13279-1.05465v-90.723h59.47008V101.8325C101.13886,103.20168,99.77782,103.8747,99.00142,102.88945Z"
    />
</svg>
