<svg xmlns="http://www.w3.org/2000/svg" viewBox="0 0 141.73228 141.73228">
    <defs>
        <style>
            .b7f04ffc-4467-4302-9722-84e85d575e2f {
                fill: #dbdce6;
            }
        </style>
    </defs>
    <path
        class="b7f04ffc-4467-4302-9722-84e85d575e2f"
        d="M121.771,16.11765a3.50792,3.50792,0,0,1,3.50394,3.504v102.413a3.50791,3.50791,0,0,1-3.50394,3.504H19.358a3.50791,3.50791,0,0,1-3.50394-3.504V19.6216A3.50792,3.50792,0,0,1,19.358,16.11765H121.771m0-5H19.358a8.50393,8.50393,0,0,0-8.50394,8.504v102.413a8.50392,8.50392,0,0,0,8.50394,8.504H121.771a8.50393,8.50393,0,0,0,8.50395-8.504V19.6216a8.50394,8.50394,0,0,0-8.50395-8.504Z"
    />
    <path
        class="b7f04ffc-4467-4302-9722-84e85d575e2f"
        d="M96.13887,16.11765v78.316L74.4293,77.93373l-3.02565-2.29956L68.37811,77.9339,46.66877,94.43546V16.11765h49.4701m5-5H41.66877v90.723a1.39272,1.39272,0,0,0,1.24972,1.52187,1.11955,1.11955,0,0,0,.88309-.46721L71.40382,81.91451l27.5976,20.97494a1.12174,1.12174,0,0,0,.885.46822,1.39585,1.39585,0,0,0,1.25245-1.52516V11.11765Z"
    />
</svg>
