<svg xmlns="http://www.w3.org/2000/svg" viewBox="0 0 141.73228 141.73228">
  <defs>
    <style>
      .b0bafdda-106e-4208-ba46-7bbca70c68f6 {
        fill: #dbdce6;
      }
    </style>
  </defs>
  <g id="b636a380-2781-4b11-9300-be2ce5b4ae8e">
    <path
      class="b0bafdda-106e-4208-ba46-7bbca70c68f6"
      d="M70.8056,122.65315c-1.48719.00068-2.97445.01009-4.46155-.00117a6.52,6.52,0,0,1-6.79467-6.17861c-.24692-2.21486-.50313-4.43129-.86742-6.6284a2.03265,2.03265,0,0,0-.9926-1.2763,38.23635,38.23635,0,0,0-4.366-1.8105,1.85807,1.85807,0,0,0-1.47254.22775c-1.84217,1.33511-3.61093,2.771-5.42018,4.15216-3.05338,2.331-6.33106,2.15651-9.03789-.502q-3.23244-3.17475-6.40756-6.40764a6.33937,6.33937,0,0,1-.51787-8.81858c1.3452-1.77815,2.69-3.559,4.10782-5.27865a1.63843,1.63843,0,0,0,.25368-2.12084,8.17579,8.17579,0,0,1-1.05372-2.4161c-.37912-2.02335-1.54482-2.81346-3.53221-2.87561-1.61829-.05062-3.22469-.4031-4.843-.54745a6.54873,6.54873,0,0,1-6.35239-6.91588c-.00871-3.0208-.01768-6.04176.00365-9.06244a6.46758,6.46758,0,0,1,5.95629-6.561c2.30571-.26622,4.6152-.52051,6.90384-.8967a2.048,2.048,0,0,0,1.24484-1.04494,35.07738,35.07738,0,0,0,1.74443-4.24158,2.02287,2.02287,0,0,0-.20909-1.593c-1.32778-1.847-2.77472-3.60778-4.1557-5.41722a6.39752,6.39752,0,0,1,.55639-9.03877c2.12387-2.14745,4.25361-4.28988,6.41779-6.39647a6.37592,6.37592,0,0,1,8.71465-.55688q2.73,2.05044,5.3895,4.19389a1.62221,1.62221,0,0,0,2.00065.2615c1.329-.65389,2.76191-1.09513,4.09847-1.73568A1.87821,1.87821,0,0,0,58.675,32.0134c.35842-2.19826.63341-4.41256.86153-6.62908a6.52854,6.52854,0,0,1,6.8343-6.29035q4.46117-.04215,8.923.00005c3.92153.03772,6.39109,2.36691,6.80445,6.29288.22845,2.16969.48489,4.34069.86455,6.48708a2.22952,2.22952,0,0,0,1.13094,1.325A29.92476,29.92476,0,0,0,88.21,34.88867a2.18622,2.18622,0,0,0,1.70368-.205c1.81645-1.28977,3.54361-2.705,5.307-4.06979a6.44929,6.44929,0,0,1,9.04429.48427q3.18676,3.12184,6.31151,6.30692a6.468,6.468,0,0,1,.55864,9.04824c-1.355,1.77092-2.71743,3.537-4.11737,5.27224a1.5437,1.5437,0,0,0-.22557,1.88515c.64533,1.33415,1.09,2.76579,1.74325,4.09544a2.04189,2.04189,0,0,0,1.252,1.03049c2.28921.37471,4.59983.6207,6.90457.898a6.40754,6.40754,0,0,1,5.92452,6.3114c.1067,3.24963.09835,6.50746.00743,9.75795a6.49128,6.49128,0,0,1-6.11261,6.44664c-2.26055.25922-4.52156.52565-6.76992.87006a1.71337,1.71337,0,0,0-1.13459.80134,46.39563,46.39563,0,0,0-1.89707,4.63325,1.874,1.874,0,0,0,.286,1.46975c1.28255,1.76584,2.65213,3.46851,3.99222,5.1925,2.4771,3.18671,2.29413,6.4998-.54122,9.36467-2.05934,2.08079-4.12313,4.15771-6.21472,6.206a6.4043,6.4043,0,0,1-8.933.50766c-1.80733-1.384-3.56677-2.83368-5.42089-4.15087a2.18841,2.18841,0,0,0-1.70523-.18554c-1.36407.44248-2.65071,1.1193-4.00653,1.59308a1.73129,1.73129,0,0,0-1.29248,1.71934c-.21385,2.26394-.52437,4.52-.84367,6.77244a6.37509,6.37509,0,0,1-6.48424,5.70449C73.96612,122.67054,72.38574,122.65248,70.8056,122.65315ZM92.49091,70.901A21.67441,21.67441,0,1,0,70.77232,92.56451,21.58794,21.58794,0,0,0,92.49091,70.901Z" />
  </g>
</svg>
