<svg xmlns="http://www.w3.org/2000/svg" viewBox="0 0 141.73228 141.73228">
    <defs>
        <style>
            .b1327346-3897-478c-9c35-11a8e37fadc0 {
                fill: #dbdce6;
            }
        </style>
    </defs>
    <g id="b8129486-3b0f-4b8e-91fa-fda66e979be7">
        <path class="b1327346-3897-478c-9c35-11a8e37fadc0" d="M65.66439,12.13118c.42749-.02783.75867-.0679,1.08986-.06808,3.21346-.00175,6.427.01912,9.64028-.00635.69873-.00554.911.20775.91092.92031-.00025,3.86141.05457,7.72282.08877,11.58424.01223,1.38129.01166,1.39258,1.35758,1.62165a44.38628,44.38628,0,0,1,9.66071,2.665A45.23929,45.23929,0,0,1,112.1387,50.8974a48.93228,48.93228,0,0,1,3.9855,12.246c.35946,1.7318.33415,1.73686,2.09049,1.73663,3.52361-.00047,7.04737.0165,10.57069-.016.68-.00626.87526.21.86971.86891q-.04262,5.07364-.00874,10.14773c.00531.696-.20345.9186-.91135.91247-3.66433-.03172-7.32907-.022-10.99364-.01067-1.19648.00372-1.32681-.275-1.59315,1.36659a42.88583,42.88583,0,0,1-4.89975,14.30857,44.87524,44.87524,0,0,1-24.10183,20.79955,76.84881,76.84881,0,0,1-8.804,2.305c-.73114.1747-.95617.46953-.958,1.18531-.01009,3.9743-.07923,7.9485-.07729,11.92271.00037.77126-.20053,1.01583-.99389,1.00519q-4.86175-.0652-9.7248-.001c-.76468.00955-.94537-.2426-.93936-.96792.032-3.86165.02062-7.72372.01249-11.58561-.00346-1.64086.17154-1.39828-1.41271-1.65355a44.63639,44.63639,0,0,1-25.75936-13.74487A42.8013,42.8013,0,0,1,28.05022,83.13217c-.493-1.81652-.88028-3.66412-1.24767-5.51106-.13311-.66916-.4206-.86011-1.07354-.85634-4.22824.02437-8.4568-.00291-12.68493.02863-.73221.00546-.97151-.18634-.96252-.94581q.059-4.98878-.00415-9.97848c-.01173-.82008.28338-.99141,1.02541-.98681,4.17182.02586,8.344-.00706,12.51575.02681.78292.00636,1.05735-.26075,1.1979-1.01949,3.0416-16.41946,12.10129-28.12822,27.4282-34.88738a41.735,41.735,0,0,1,9.80149-2.79455c1.44237-.24933,1.51064-.23365,1.53431-1.68238.06173-3.77588.06036-7.55279.08364-11.32929C65.66616,12.86366,65.66439,12.53129,65.66439,12.13118Zm-29.81664,58.888c-.67858,17.3773,14.42082,35.67377,35.57544,35.65018a35.84524,35.84524,0,1,0,.03335-71.69022C51.087,34.95435,35.094,52.3075,35.84775,71.01916Z" />
        <path class="b1327346-3897-478c-9c35-11a8e37fadc0" d="M97.87181,70.89252A26.36572,26.36572,0,1,1,45.17821,69.446c.60767-13.02935,11.76892-25.07255,26.28725-25.01147A26.38585,26.38585,0,0,1,97.87181,70.89252Z" />
    </g>
</svg>