<svg xmlns="http://www.w3.org/2000/svg" viewBox="0 0 141.73228 141.73228">
  <defs>
    <style>
        .a920c84d-cbbc-4a51-987d-71be3855f1f7 {
          fill: none;
          stroke: #dbdce6;
          stroke-miterlimit: 10;
          stroke-width: 5px;
        }
        .f11d2659-a0eb-42d7-b43b-25ed250971cd {
          fill: #dbdce6;
        }
    </style>
  </defs>
  <g id="fe435733-d222-40fc-ae58-e1fd1280d1e2" data-name="Ebene 5">
    <rect class="a920c84d-cbbc-4a51-987d-71be3855f1f7" x="33.43739" y="24.06772" width="86.13333" height="100.26667" rx="10.93333" />
    <rect class="f11d2659-a0eb-42d7-b43b-25ed250971cd" x="47.70406" y="72.60105" width="57.6" height="7.2" />
    <rect class="f11d2659-a0eb-42d7-b43b-25ed250971cd" x="47.70406" y="86.60105" width="57.6" height="7.2" />
    <rect class="f11d2659-a0eb-42d7-b43b-25ed250971cd" x="47.70406" y="100.60105" width="57.6" height="7.2" />
    <path class="f11d2659-a0eb-42d7-b43b-25ed250971cd" d="M47.228,44.37418h5.90414a11.528,11.528,0,0,1,3.04492.30568,5.3528,5.3528,0,0,1,2.41233,1.47328,7.00153,7.00153,0,0,1,1.528,2.59211,11.827,11.827,0,0,1,.52322,3.78136,10.51893,10.51893,0,0,1-.491,3.40527A7.04233,7.04233,0,0,1,58.436,58.75846a5.67634,5.67634,0,0,1-2.26992,1.277,9.77442,9.77442,0,0,1-2.85923.33832H47.228Zm3.2306,2.7066V57.67819h2.41154a8.77284,8.77284,0,0,0,1.95362-.153,2.98691,2.98691,0,0,0,1.30452-.66563,3.39362,3.39362,0,0,0,.84581-1.5441,10.452,10.452,0,0,0,.32731-2.93043,9.57091,9.57091,0,0,0-.32731-2.84861,3.66707,3.66707,0,0,0-.91663-1.5496,3.07416,3.07416,0,0,0-1.4957-.753,14.63231,14.63231,0,0,0-2.65152-.153Z" />
    <path class="f11d2659-a0eb-42d7-b43b-25ed250971cd" d="M63.38023,60.37376V44.37418H75.2436v2.7066H66.61083v3.54689h8.03244v2.696H66.61083v4.35455h8.938v2.69557Z" />
    <path class="f11d2659-a0eb-42d7-b43b-25ed250971cd" d="M92.71607,60.37376H89.20222l-1.39735-3.63423H81.40975L80.0895,60.37376H76.6622l6.23146-15.99958H86.31ZM86.76865,54.044,84.564,48.10676,82.4027,54.044Z" />
    <path class="f11d2659-a0eb-42d7-b43b-25ed250971cd" d="M94.51706,60.37376V44.50519h3.2306v13.173h8.03244v2.69557Z" />
  </g>
</svg>