<svg xmlns="http://www.w3.org/2000/svg" viewBox="0 0 141.73228 141.73228">
  <defs>
    <style>
        .f37797fd-c1e3-4eec-b725-5163eba9b706 {
          fill: #dbdce6;
        }
    </style>
  </defs>
  <polygon class="f37797fd-c1e3-4eec-b725-5163eba9b706" points="84.564 48.107 82.403 54.044 86.769 54.044 84.564 48.107" />
  <path class="f37797fd-c1e3-4eec-b725-5163eba9b706" d="M56.12827,56.85951a3.39306,3.39306,0,0,0,.84583-1.54412,10.45339,10.45339,0,0,0,.32727-2.93042,9.57219,9.57219,0,0,0-.32727-2.84858,3.66764,3.66764,0,0,0-.91663-1.54962,3.07366,3.07366,0,0,0-1.4956-.753,14.63612,14.63612,0,0,0-2.65161-.153H50.4586V57.67818h2.41162a8.777,8.777,0,0,0,1.95361-.153A2.98743,2.98743,0,0,0,56.12827,56.85951Z" />
  <path class="f37797fd-c1e3-4eec-b725-5163eba9b706" d="M108.63828,21.56905h-64.27a13.44568,13.44568,0,0,0-13.43,13.43v78.4a13.4542,13.4542,0,0,0,13.43,13.44h64.27a13.44774,13.44774,0,0,0,13.42994-13.44v-78.4A13.43923,13.43923,0,0,0,108.63828,21.56905ZM82.89366,44.37416h3.41625L92.716,60.37374H89.20225l-1.39746-3.63422h-6.395l-1.32031,3.63422H76.66221Zm-19.51343,0h11.8634v2.70661H66.61082v3.54687h8.03247v2.696H66.61082v4.35455h8.93811v2.69556H63.38023Zm-16.15222,0h5.90417a11.52772,11.52772,0,0,1,3.04492.30567,5.35371,5.35371,0,0,1,2.41236,1.47326,7.00141,7.00141,0,0,1,1.52783,2.59217,11.8246,11.8246,0,0,1,.52331,3.78131,10.51981,10.51981,0,0,1-.491,3.40527,7.04143,7.04143,0,0,1-1.71375,2.8266,5.67466,5.67466,0,0,1-2.26977,1.277,9.77636,9.77636,0,0,1-2.85938.33832H47.228ZM105.30406,107.801h-57.6v-7.2h57.6Zm0-14h-57.6v-7.2h57.6Zm0-14h-57.6v-7.2h57.6Zm.47607-19.4273H94.51707V44.50514h3.23059v13.173h8.03247Z" />
</svg>
