<svg xmlns="http://www.w3.org/2000/svg" viewBox="0 0 141.73228 141.73228">
  <defs>
    <style>
      .e08dbb17-20b3-45ac-9aa8-3c5351940902 {
        fill: #dbdce6;
      }
      .a2fc2e7b-101c-4566-ae3d-227971e593f4 {
        fill: none;
        stroke: #dbdce6;
        stroke-miterlimit: 10;
        stroke-width: 5px;
      }
    </style>
  </defs>
  <path
    class="e08dbb17-20b3-45ac-9aa8-3c5351940902"
    d="M65.816,76.84648l.23457.03162q-.04545-.20063-.09053-.40077Q65.88749,76.66153,65.816,76.84648Z" />
  <path
    class="e08dbb17-20b3-45ac-9aa8-3c5351940902"
    d="M107.81128,55.25509q-.78942-.24776-1.57912-.49542.3116.36672.623.73335Q107.33341,55.37392,107.81128,55.25509Z" />
  <path
    class="e08dbb17-20b3-45ac-9aa8-3c5351940902"
    d="M104.59421,112.11594q.07394-.05781.14768-.116c-.01281-.00065-.02591-.005-.03872-.00561C104.67455,111.993,104.63471,112.0499,104.59421,112.11594Z" />
  <path
    class="e08dbb17-20b3-45ac-9aa8-3c5351940902"
    d="M97.89416,113.99165c-.31182,1.05537-.64478,2.10448-.973,3.155a54.40361,54.40361,0,0,0,4.76075-2.89115c-.88477-.28367-1.76777-.57267-2.64469-.87889C98.33972,113.13306,98.08056,113.361,97.89416,113.99165Z" />
  <path
    class="e08dbb17-20b3-45ac-9aa8-3c5351940902"
    d="M66.39531,76.81833a.2245.2245,0,0,0,.00953-.08735l-.04386.12561A.21955.21955,0,0,0,66.39531,76.81833Z" />
  <path
    class="e08dbb17-20b3-45ac-9aa8-3c5351940902"
    d="M72.70824,64.8265l-.01.02955.23559-.00093-.00009-.01749.02348-.02292q.00055-.36012.00093-.72016l-.0202.02955.01-.02955-.23279.00131-.0044.02235-.0217.04854-.00084.6893Z" />
  <path
    class="e08dbb17-20b3-45ac-9aa8-3c5351940902"
    d="M72.95722,64.855l-.02339.00009q.00225.48513.00412.97054l.00851-.00458q.24663-.73078.49308-1.46147l-.0116.00916.01506-.02815q-.243.237-.48578.47409Z" />
  <path
    class="e08dbb17-20b3-45ac-9aa8-3c5351940902"
    d="M114.21438,62.91413a5.787,5.787,0,0,0,.42153.77488c.25767-.18491.63992-.31473.75085-.56482.38561-.86981.67751-1.78134,1.09736-2.92959-1.106.49813-1.92191.86579-2.7355,1.23224C113.90107,61.92319,114.035,62.42722,114.21438,62.91413Z" />
  <path
    class="e08dbb17-20b3-45ac-9aa8-3c5351940902"
    d="M66.18655,77.59434c.04171-.22279.08343-.44492.12467-.66789l-.22568-.01721Q66.13591,77.25169,66.18655,77.59434Z" />
  <path
    class="e08dbb17-20b3-45ac-9aa8-3c5351940902"
    d="M65.31562,78.37156l.01768-.02731-.00431.02731.22569-.00019.01038-.02142.00561-.006-.16115-.30949Q65.36239,78.203,65.31562,78.37156Z" />
  <path
    class="e08dbb17-20b3-45ac-9aa8-3c5351940902"
    d="M17.18229,63.95388c-.02974.30219-.0449.6084-.06959.9119.08137-.28105.16181-.56248.24514-.843Z" />
  <path
    class="e08dbb17-20b3-45ac-9aa8-3c5351940902"
    d="M31.71192,32.27854c-.02833-.02348-.04872-.058-.07519-.08418-.2428.2587-.48953.5131-.72727.77657a10.66308,10.66308,0,0,1,1.03918,3.23075C33.39617,34.07643,33.33426,33.61964,31.71192,32.27854Z" />
  <path
    class="e08dbb17-20b3-45ac-9aa8-3c5351940902"
    d="M61.68637,65.08249l-.03685.23662.33922-.131C61.8882,65.15263,61.78747,65.11719,61.68637,65.08249Z" />
  <path
    class="e08dbb17-20b3-45ac-9aa8-3c5351940902"
    d="M61.6541,65.59212l-.02862-.02.00047.00018-.00028-.00018.02768.014-.03105-.2313q-.4833-.01263-.9668-.02534l.00159.0042Q61.15569,65.46277,61.6541,65.59212Z" />
  <path
    class="e08dbb17-20b3-45ac-9aa8-3c5351940902"
    d="M45.50185,116.66459c.60363-1.1055,1.11335-2.26217,1.66161-3.39826.32586-.67527.04677-1.07688-.56556-1.37009-.66994-.3208-.89777.08146-1.02656.61345-.30817,1.27264-.597,2.54977-.89356,3.82512l-.29686.01674a8.16123,8.16123,0,0,1,.01225-1.37178c.21418-1.23663-.23475-1.69-1.45959-1.39619-.36252.087-.71979.19566-1.4133.386.72886-1.49523,1.31706-2.67023,1.86859-3.86216.10475-.22662.00542-.544.10026-.77918a18.42847,18.42847,0,0,1,1.07969-2.4005,7.36536,7.36536,0,0,1,1.22867-1.2545H44.59426a13.08342,13.08342,0,0,1,.44668-1.47943,7.19041,7.19041,0,0,1,.9422.24776c.44426-1.27124.89824-2.62515,1.3902-3.96523.70305-1.91452,1.4336-3.81876,2.15254-5.72749a27.9891,27.9891,0,0,0,.74654,2.98515c.2139.59381.75365.70473,1.02067-.023.67555-1.84129,1.32333-3.69428,1.91152-5.56466a1.22983,1.22983,0,0,0-.25636-1.09849,1.81988,1.81988,0,0,0-1.35755-.30659c-.4292.11224-.88393.55453-.267,1.11047a1.03315,1.03315,0,0,1-.31425.52048,9.40224,9.40224,0,0,1-1.01431.58989c.46119-1.39554.89291-2.80193,1.39562-4.18259.304-.83484.48046-1.45269-.80415-1.25179-.18443.02881-.41938-.26506-.63094-.40946.19669-.04929.44744-.03985.57894-.16022a5.67823,5.67823,0,0,0,.76169-.901,6.57278,6.57278,0,0,0,.40834-.757q.32926.3398.65769.67864c.1099-.30481.29527-.75131.43051-1.21231.13777-.469.17452-.97185.34512-1.42622.82126-2.18744.832-2.18341-1.46035-2.46335a.36773.36773,0,0,1-.12111-.01459c-.46016-.24251-.91845-.48868-1.37729-.73391.5-.06781.9984-.15732,1.50074-.19211.181-.01253.488.0564.53816.17331.30359.71.63777.20043.77694-.02974.09044-.14984-.11747-.49533-.21979-.7414a5.98716,5.98716,0,0,0-.31912-.58671,1.3514,1.3514,0,0,1,.31322-.12729,1.06454,1.06454,0,0,1,1.15227,1.25094,1.64708,1.64708,0,0,0,.0838.52919c.14122-.09091.3743-.15573.40853-.27685.2239-.79274.73195-1.59877-.0766-2.38095-.14815-.14319-.13973-.44828-.20361-.67864q.27161-.05514.54321-.11036.40572-.08263.81135-.16555c-.23382-.21446-.43191-.52423-.70744-.62757-1.37477-.51544-2.76394-.99468-4.15872-1.45418Q41.24937,71.623,31.87064,68.55351q.49874,1.0477.99748,2.09541c-.25468.0998-.5463.33371-.75767.27554-.85578-.23523-1.67976-.58334-2.52993-.84307a14.45426,14.45426,0,0,0-1.50262-.29171l.1937-.7993c-.149.064-.308.20118-.44576.18238a15.92482,15.92482,0,0,1-3.83969-1.42631c-1.16283-.476-2.63785-.49457-3.83735-1.302q.696.05274,1.39226.1054a21.75254,21.75254,0,0,0-2.9624-1.5478.55007.55007,0,0,1-.28835-.32342c-.07753-.40011-.10428-.81014-.15058-1.21624.97316.29555.97316.29555,1.22522-.62178.68359-2.48729.70987-2.69586-1.54817-3.31726-.26693,1.459-.487,2.9338-.63449,4.43053l.17555.06893c-.08333.28049-.16377.56192-.24514.843-.1199,1.46952-.19743,2.95082-.19743,4.45064a54.34527,54.34527,0,0,0,28.09986,47.54673A.71624.71624,0,0,0,45.50185,116.66459Z" />
  <path
    class="e08dbb17-20b3-45ac-9aa8-3c5351940902"
    d="M101.62788,109.31467a9.06127,9.06127,0,0,1-.61962,2.115c-.1012.24411-.5563.56061-.76263.507-1.49111-.38674-2.97745-.80912-4.4319-1.31623-3.05743-1.06585-6.09587-2.1866-9.13926-3.29238q-4.39661-1.59752-8.78647-3.21373c-.02076-.00767-.02067-.07239-.0564-.21306h2.06l.04564-.3208a12.02025,12.02025,0,0,0-3.42171-.48345,4.18442,4.18442,0,0,1-2.39908-.32567c-.68014-.28152-1.67078-.80331-2.09184.49739-.6547,2.02236-1.30612,4.046-1.97858,6.06241q-1.78466,5.3509-3.59568,10.693c-.37168,1.09316-.75383,2.18285-1.13141,3.27405.19024.02067.37991.04321.5708.06192.50318-1.60224,1-3.20653,1.51759-4.80409,1.50972-4.65977,3.05536-9.30785,4.57958-13.96294.47615-1.45409.50814-1.42107,1.97307-.9119q11.06634,3.84668,22.16365,7.60385c.94819.31884,1.1258.65517.79686,1.54519a18.46628,18.46628,0,0,0-.74093,2.78976c-.16564.83006-.54751,1.08053-1.35522.804-2.39823-.82137-4.8105-1.60186-7.2093-2.42173q-4.28746-1.46522-8.5607-2.97243c-.96025-.33754-1.906-.71745-2.85456-1.08754-.79068-.30837-1.24822-.16358-1.50982.75683-.84643,2.97944-1.731,5.9499-2.68668,8.89595-.43621,1.34437-.89768,2.68052-1.36373,4.01508.19538.002.38814.01477.584.01477a53.97012,53.97012,0,0,0,25.6977-6.47833c.32819-1.05051.66115-2.09962.973-3.155.1864-.63066.44556-.85859,1.14309-.61505.87692.30622,1.75992.59522,2.64469.87889.99747-.67827,1.96352-1.39816,2.91227-2.13955.0405-.066.08034-.1229.109-.12159.01281.00056.02591.005.03872.00561q1.046-.8231,2.04975-1.69529c-1.26365-.5507-2.51889-1.12693-3.78638-1.666C102.287,108.33309,101.77341,108.332,101.62788,109.31467Z" />
  <path
    class="e08dbb17-20b3-45ac-9aa8-3c5351940902"
    d="M39.74381,25.10444c-.11831.08437-.23756.16733-.355.25272.04471.01749.09493.03413.13412.05237C39.59473,25.3103,39.67086,25.20508,39.74381,25.10444Z" />
  <path
    class="e08dbb17-20b3-45ac-9aa8-3c5351940902"
    d="M47.10623,26.31292q1.21842-3.38665,2.43406-6.77491a54.21948,54.21948,0,0,0-6.40366,3.31333C45.27355,23.034,46.41234,24.40775,47.10623,26.31292Z" />
  <path
    class="e08dbb17-20b3-45ac-9aa8-3c5351940902"
    d="M40.51719,25.00484c1.06547.15581,2.13758.26636,3.14787.37514-.20754-.76806-.434-1.60635-.66115-2.44689-.83605.51048-1.65367,1.0478-2.45922,1.60148A3.113,3.113,0,0,0,40.51719,25.00484Z" />
  <path
    class="e08dbb17-20b3-45ac-9aa8-3c5351940902"
    d="M60.15363,16.89387c.08483.64609.1793,1.29088.27844,1.99328.46427-.21334.99214-.456,1.53825-.707-.69-.84942-.29536-1.62412.15432-2.39507-.56874.09643-1.13842.19061-1.70108.30462-.08212.15086-.16751.30032-.248.45193A.63338.63338,0,0,0,60.15363,16.89387Z" />
  <path
    class="e08dbb17-20b3-45ac-9aa8-3c5351940902"
    d="M106.81166,42.9736c-.505,1.23513-1.46848,2.41-1.55537,3.65873-.12289,1.76666-1.4291,3.292-.90628,5.13293.01234.04331-.07193.15517-.1286.1706-.70324.19127-1.01955.41433-1.18135,1.35457-.22073,1.282-.43575,1.46269.86756,1.84344l.00112.0015q.3165.18855.6345.37533-.32407-.19767-.64806-.39534.14016-.19768.2803-.39544,1.02834.01992,2.05668.03975.78957.24776,1.57912.49542-.478.119-.95613.23793-.31144-.36686-.623-.73335-1.02834-.01992-2.05827-.03732.72447.4004,1.45212.79583.61447-.00027,1.22886-.00028.12149.24692.243.49374l1.49982-.00842q-.36139-.36771-.72269-.73523c1.04143.06052,1.15217.13721,1.08978.752.7384.31931,1.52123.97971,2.208.89151a10.56942,10.56942,0,0,1,5.06471.90957,3.94151,3.94151,0,0,0,.62907.11279c-.20361-.35194-.36569-.63215-.52768-.91237a4.61407,4.61407,0,0,1,1.12645-.00682c.79442.18977,1.56883.46334,2.38954.71446-.13739.69061-.31669,1.59092-.49626,2.49281a2.78414,2.78414,0,0,1-1.0505-.13674c-1.43042-.82613-2.6634-.39964-3.86813.47709-.177.12879-.47961.11467-.6126.26515-.11252.12739-.07875.38412-.10242.59017-1.72717.25683-2.82687,1.542-4.06228,2.56286-.79555.65751-1.35775,1.59316-2.13805,2.27442-.98765.86234-2.10288,1.57717-3.13243,2.39424-.19183.15217-.39768.55238-.32576.7255.33006.795-.30986.99729-.73709,1.27572-.53236.34681-1.12682.59859-1.81566.954,1.05556.33268,1.94828.61392,2.9495.92949-.32857.28311-.517.44557-.81762.70464,3.38888-.47185,6.20341.987,9.13916,1.899a3.46482,3.46482,0,0,0,1.48008.24345A38.54515,38.54515,0,0,0,119.566,74.327c1.41872-.43809,2.84465-.92332,3.30275-2.817.66133-2.73374,1.49429-5.41651,2.33688-8.09853-.14927-1.37384-.35727-2.72963-.60746-4.071-.5361,1.70287-1.10391,3.39592-1.61915,5.10487-.16976.56323-.35185.8382-1.01076.61748-1.70492-.57109-3.42751-1.0898-5.14636-1.61861-1.43631-.44173-.49009-1.35541-.40021-2.075.10148-.81276.55144-.93528,1.31023-.661.58408.211,1.4378.80191,1.63964-.48579l-.00365-.00019c.41423-.94089,1.07258-1.30846,2.3-.51534-.49466-.9148-1.881-.64245-1.36859-1.76918.26955-.5926.80444-1.06192,1.093-1.649a2.34794,2.34794,0,0,1,2.23008-1.22214,54.27561,54.27561,0,0,0-12.7817-22.84074c-.4307,1.272-.85615,2.54574-1.30209,3.8124C108.71411,38.37986,107.75171,40.6742,106.81166,42.9736Zm8.5751,20.15059c-.11093.25009-.49318.37991-.75085.56482a5.787,5.787,0,0,1-.42153-.77488c-.17938-.48691-.31331-.99094-.46576-1.48729.81359-.36645,1.62953-.73411,2.7355-1.23224C116.06427,61.34285,115.77237,62.25438,115.38676,63.12419Z" />
  <path
    class="e08dbb17-20b3-45ac-9aa8-3c5351940902"
    d="M79.3866,65.10708a20.64274,20.64274,0,0,0,2.25785.8571c1.88823.65442,3.983.72718,5.65048,2.01245.11055.0852.31173.06229.47176.07173.37149.02208.74354.033,1.1155.04855-.20426.30125-.40862.60251-.773,1.13964.80705-.23382,1.38907-.40937,1.9754-.56931.31481-.086.63683-.145.95566-.21614.02217.34783.05762.69557.06136,1.04368a5.37839,5.37839,0,0,1-.06781.64731c.20436-.09091.52142-.12907.59315-.28227.268-.57127.31276-1.30388.70053-1.75141,1.07762-1.244,2.32192-2.34214,3.43312-3.55922a12.02814,12.02814,0,0,0,2.68257-6.66137c-.48887.07875-.83642.13458-1.18407.19051a12.231,12.231,0,0,1,.00767-2.12936c.04116-.2543.55172-.58324.87468-.61579,1.65721-.16722,1.67639-.1618,1.10362-1.75047-.05555-.154-.135-.30023-.18032-.4568-.3034-1.04882-.03919-1.40086,1.2009-1.42069-.34858-.9538-.63225-1.88955-1.0419-2.76657a1.42586,1.42586,0,0,0-.91891-.672c-.19547-.03769-.59278.35587-.70819.63431-.32614.78723-.54275,1.61916-.82333,2.42622-.28292.81444-.59091,1.62-.85606,2.3426a8.495,8.495,0,0,0-1.13449-1.10953c-.49551-.32248-1.07716-.50982-1.60269-.79059-.173-.09231-.28732-.29452-.42855-.4465.70876-.36785.40713-1.5435,1.535-1.72906.45847-.07529.982-1.03106,1.06856-1.64376.05808-.41087-.08624-1.391-1.20633-1.13824-.487.11-1.07847-.36205-1.63776-.41864a8.77024,8.77024,0,0,0-1.66975.13459l.02385.272c.45033.1214.90067.243,1.55939.4205-.43042.10691-.64245.15956-.85457.21231q.00547.13932.01057.2789h1.91012c-.348.60551-.59577,1.0363-.84344,1.467-.28778-.2746-.55808-.571-.86718-.81875-.47344-.37935-.95848-.7486-1.46643-1.07922-.59034-.38422-.91255-.15236-1.22016.46324-.55425,1.10906.72334,1.28078.72587,2.23374-.41274-.339-1.15535-.66162-1.17321-1.0203a11.12841,11.12841,0,0,1,.41507-2.72271.92065.92065,0,0,1,.59269-.01524c.69229.29106.97605-.02357,1.12766-.65376.10494-.43631.26964-.85785.393-1.29023.15291-.53591.35241-.87664,1.04236-.6417.22138.07529.583-.261.88038-.409-.17-.30733-.27011-.79227-.52207-.89151-1.10157-.43369-2.24336-.76824-3.37813-1.11448-1.081-.3296-2.21652-.56342-2.65516-1.92416-.99093,2.5942-1.85718,5.14-2.71493,7.68878q-1.48638,4.4157-2.959,8.83628c-.15591.46717-.29732.77759.39085,1.13833,2.29845,1.20483,5.087.81361,7.2658,2.3297a.73657.73657,0,0,0,.35793.07155c.63674.03937,1.28021.0289,1.90806.124a1.71824,1.71824,0,0,1,.88777.45492c.11672.11429.01038.45642.00486.69557a3.67577,3.67577,0,0,1-.92489-.05556C87.2939,59.45909,83.84,58.30748,80.37406,57.19318c-.7081-.22765-.85129-.54658-.61251-1.26544q3.01767-9.08562,5.95435-18.198c.30846-.95885.92144-1.11813,1.763-1.044.23485.02076.64366.06893.67939-.01712a1.46245,1.46245,0,0,0,.10886-.93042,4.40352,4.40352,0,0,0-.632-.98177c.375.15311.74972.30687,1.12551.458a.93194.93194,0,0,0,.12093.01983q2.83979.71058,5.67929,1.42247c.97914.245,1.86438.53639,1.15853,1.8528-.06874.12823.04658.37177.11756.545a.426.426,0,0,0,.30818-.00589c.31154-.797.40535-.50992.47222.08155.00178.01581.35541.046.37673-.00308a5.64135,5.64135,0,0,0,.55855-1.58344c.01814-.1807-.5405-.50692-.88384-.62149-1.82342-.60841-3.67312-1.13983-5.48728-1.77349-.393-.1373-.97081-.60008-.95557-.88581a6.67829,6.67829,0,0,1,.5925-2.20446c.22026-.51581.71081-.91209.96016-1.42088a8.43766,8.43766,0,0,0,.53161-1.68379c.08081-.32464.21736-.85953.07417-.97027a1.86609,1.86609,0,0,0-1.21287-.36382c-.15919.01421-.30977.61944-.38571.9726a17.67933,17.67933,0,0,1-.45455,2.36477,23.16975,23.16975,0,0,1-1.32547,2.65116c-.11327.21773-.26169.41723-.39385.62514q-.17747-.07857-.35466-.15713c.89394-2.63413,1.788-5.26817,2.689-7.92269-1.1618-.49346-1.15647-.49177-1.61906.92752-.62149,1.90695-1.24569,3.813-1.88533,5.71383-.11495.34147-.22176.79574-.48223.96-1.42826.9-1.24906,2.55959-1.80022,3.84009a47.447,47.447,0,0,0-1.69173,5.70532,6.41525,6.41525,0,0,1-.3874,1.14292c-.58015,1.14188-.25421,2.87562-2.086,3.22429-.12261.02338-.27244.31594-.26477.47634a.50556.50556,0,0,0,.38178.32277c.75879-.03461.56509.37439.40572.78882-.93116,2.42322-1.87037,4.84364-2.78142,7.27445a2.937,2.937,0,0,0-.2024,1.19342c.15245,2.18716.33923,4.372.53956,6.55531C79.09975,64.57107,79.19084,65.01234,79.3866,65.10708Z" />
  <path
    class="e08dbb17-20b3-45ac-9aa8-3c5351940902"
    d="M30.454,42.63091a2.369,2.369,0,0,1,.15637-.4596c.715-1.58764,1.418-3.18127,2.16994-4.75124.11467-.23962.48607-.54686.69707-.518,1.0361.14188,2.05125.43509,3.087.58334,1.3613.19491,2.735.30434,4.10335.45052-1.18425-.81641-2.38028-1.61645-3.5491-2.45427-.95791-.68678-1.49467-.4596-1.79349.64366a1.21391,1.21391,0,0,1-1.08277.51609c-.49607-.17284-1.63412.13646-1.32585-.9394a10.61522,10.61522,0,0,1,1.374-2.68754,1.08737,1.08737,0,0,1,1.04236-.09212c.97915.646,1.88711,1.39993,2.82782,2.118-.25393-.49739-.2703-.8672.43312-.53284,1.06865.50786,2.08034,1.1403,3.16311,1.61243.711.31005.86224.89516.5463,1.346-.61691.87991-.06575,1.33362.42228,1.875a14.21023,14.21023,0,0,1,1.29975,1.462c.59933.88665,1.24374.9105,2.1127.20361-.69145-1.17079-1.39244-2.35785-2.1344-3.61422,1.10934.55051,2.19707,1.07764,3.27236,1.629.61036.31294,1.06462.33511,1.31939-.44277,1.11794-3.41275,2.25346-6.81971,3.38262-10.22873q-.45735.34512-.91489.69034a3.52614,3.52614,0,0,1,.06042-1.22289c.33324-.76852.91583-1.44118,1.17574-2.22616.32089-.96951.3873-2.0204.61953-3.0233.24177-1.04434.67611-.79415,1.12327-.10775a19.32807,19.32807,0,0,1,.55826-1.98888c.40143-1.02049.90208-2.0016,1.32389-3.0147a1.376,1.376,0,0,0,.07033-.25973c-1.12411.329-2.23821.68154-3.331,1.08016a2.77008,2.77008,0,0,0-.79873,2.16836.30592.30592,0,0,1-.12233.20577c-1.11382.89946-.96942,2.34391-1.452,3.50881-.71231,1.71933-1.01319,3.60458-1.60774,5.37956-.23111.69-.84989,1.845-1.17948,1.80725-1.67321-.1922-3.44987.42537-5.04293-.64553-.85119-.57221-2.06967-.82071-2.74289.08763-.96773,1.30566-1.88608,1.14161-3.01664.4422a1.33132,1.33132,0,0,0-.353-.09988,4.32744,4.32744,0,0,1-1.45725-.19464,5.91532,5.91532,0,0,1-1.14852-.86392q-1.081,1.033-2.10522,2.12188c.02647.02619.04686.0607.07519.08418,1.62234,1.3411,1.68425,1.79789.23672,3.92314a10.66308,10.66308,0,0,0-1.03918-3.23075,54.6375,54.6375,0,0,0-5.8728,7.8199c1.20445.77713,2.2933,1.73813,3.44547,2.60187C29.71408,44.31629,30.11915,44.15093,30.454,42.63091Z" />
  <path
    class="e08dbb17-20b3-45ac-9aa8-3c5351940902"
    d="M66.89858,20.791c-.21867.975-.61214,1.41658-1.69912.94426a20.597,20.597,0,0,0-3.04162-.94651c-.91433-.23737-1.36691.15872-1.13169.94258.73869,2.46111,1.46689,4.92633,2.27339,7.36527a2.2886,2.2886,0,0,0,1.00813,1.27965,33.05149,33.05149,0,0,0,3.46483,1.23037c.71474.23878,1.05219-.01366,1.12711-.78845a6.46059,6.46059,0,0,1,.47418-2.45418c.75066-1.35382.13085-3.1578,1.49345-4.27378.085-.06958.04911-.31556.03264-.47587-.1285-1.24711-.23279-2.498-.40946-3.73852-.19632-1.37889-.46119-2.748-.69622-4.12151l-.23485.022q-.39282,1.01164-.78582,2.02339l-.28713-.09989q.368-1.32043.73588-2.64114c-.11645.0043-.23392.00383-.35017.00888-.42892.92032-.86083,1.83952-1.2154,2.78761A22.2764,22.2764,0,0,0,66.89858,20.791Z" />
  <path
    class="e08dbb17-20b3-45ac-9aa8-3c5351940902"
    d="M101.70018,103.24122a13.2888,13.2888,0,0,0,.68687,1.55911c.15385.26151.53058.38254.73475.62711.11092.133.0708.39179.09886.594-1.25486-.35223-.67218,1.12636-1.71558,1.30351.78414.20894,1.22175.29573,1.639.44145,1.55789.54387,3.11307,1.09587,4.66909,1.645q1.95889-1.78915,3.73653-3.76265c-2.692-.90358-5.37775-1.82773-8.09165-2.65985C102.94606,102.83194,102.28978,103.14526,101.70018,103.24122Z" />
  <path
    class="e08dbb17-20b3-45ac-9aa8-3c5351940902"
    d="M46.89859,51.01311c1.17247.42471,2.37374.76946,3.5491,1.18687,1.09475.3888,2.49383.00122,3.25767,1.26226.0433.07174.23737.03863.34886.08446,1.75514.72054,3.50439,1.4553,5.26842,2.15283.14263.05631.54414-.11831.55453-.21492.13786-1.27835.20978-2.5638.33941-3.84318a6.16952,6.16952,0,0,1,.31481-1.09362,4.03373,4.03373,0,0,0,.73476.27394c.10129.01852.34137-.15217.3395-.23251-.01225-.51263-.09418-1.023-.11644-1.53583-.08193-1.89479,1.22475-3.24328,2.01786-4.763.3238-.62037.08755-.46652-.22914-.67911-.85774-.576-1.33062.41611-1.94528.42575-1.28311.02-1.10092.68565-.93023,1.495.12851.60934-.0332.95053-.76946,1.07838-1.42134.24692-1.70585,1.02648-1.03853,2.38666a.98512.98512,0,0,1,.07959.771.80046.80046,0,0,1-.70753.189c-.9538-.23607-.819.363-.70642.8988.04723.22475.33128.40872.35466.62749a4.59027,4.59027,0,0,1-.10447,1.0144c-.25505-.13383-.51674-.25636-.76375-.40366-.99448-.59251-1.78657-1.55482-3.08576-1.582-1.31856-.02777-2.58072-.17115-2.71446-1.929-.0101-.13225-.53142-.39394-.65236-.32192-.72979.43416-1.4104.95071-2.1112,1.43416-.32763.226-.66377.43958-.99607.65881q-.0905-.15348-.1807-.30705-.39561.1859-.79115.37187C46.44078,50.62207,46.63372,50.91715,46.89859,51.01311Z" />
  <path
    class="e08dbb17-20b3-45ac-9aa8-3c5351940902"
    d="M61.90354,53.92839a6.55183,6.55183,0,0,1,.18135,1.37973c-.06444.73055-.27254,1.44716-.3613,2.17687-.09194.7558-.35269.91274-1.12635.66929-2.4046-.75664-4.84091-1.41387-7.27-2.09083a6.11458,6.11458,0,0,0-1.0333-.11017,15.74466,15.74466,0,0,0,2.37673,1.38927c.62935.33782,1.28133,1.12365,1.81912,1.04013,1.15506-.1793.5823.42443.532.794a3.40409,3.40409,0,0,1,1.03666.08922c.69164.29555,1.32894.71727,2.01787,1.02049.724.31856,1.48494.55247,2.22484.83615.23793.09119.46043.22306.69.33632.08034-.29012.31061-.64618.2168-.86008-.62654-1.42809-.07164-2.63236.6358-3.81156a20.1377,20.1377,0,0,0,1.739-2.83139c.84175-2.16237,1.51215-4.39274,2.21978-6.60572.27834-.87028,1.04686-2.02629-.88851-1.94062-.13674.00608-.2905-.37149-.57763-.76357-.89777,2.60533-1.74111,5.02706-2.56472,7.45552C63.43571,53.09206,63.17075,54.12611,61.90354,53.92839Z" />
  <path
    class="e08dbb17-20b3-45ac-9aa8-3c5351940902"
    d="M35.691,48.24719c.71745.34587,1.57314.42,2.26431.80164,1.543.85223,3.012,1.83736,4.53292,2.7313a8.40328,8.40328,0,0,0,1.27347.5305,35.64271,35.64271,0,0,1-1.91582-3.68839,8.45661,8.45661,0,0,1-.29443-2.6244c-.02095-.44408.32183-1.06071.12776-1.31473-.9292-1.21624-1.98587-2.33512-2.9103-3.38938-.4278.65339-.69417,1.06-.93556,1.42865.79835.13515.71464.81.29293,1.62468-.14918.28816-.19968.62617-.338.92126-.30266.64544-.66461,1.83371-.94585,1.81753a5.19566,5.19566,0,0,1-3.1633-.88478c-1.18976-1.17742-2.63505-.97306-3.89552-1.54a9.74008,9.74008,0,0,0,1.84558,1.42948C32.961,46.849,34.311,47.58174,35.691,48.24719Z" />
  <path
    class="e08dbb17-20b3-45ac-9aa8-3c5351940902"
    d="M121.10345,85.01525c-.72353,2.11327-1.41283,4.23936-2.04694,6.38069-.09765.33.06986,1.01516.29956,1.11636.26254.1156.53349.23036.80715.33922a53.93971,53.93971,0,0,0,3.2572-8.57561c-.04321-.0304-.07978-.07043-.12495-.09774C121.93482,83.35484,121.61645,83.51646,121.10345,85.01525Z" />
  <path
    class="e08dbb17-20b3-45ac-9aa8-3c5351940902"
    d="M108.857,88.94419c.86083.36644,1.76309.63534,2.84923,1.00515a4.57214,4.57214,0,0,0,.54424-.87776c.62027-1.75347,1.21343-3.51658,1.8005-5.28155.81612-2.45428.81556-2.473-1.64225-3.25666a4.85866,4.85866,0,0,0-1.32015-.04629c.01431.56238.05247,1.12561.03423,1.687a2.153,2.153,0,0,1-.18808,1.03947c-.26656.41854-.83053.683-1.005,1.11832-.49551,1.23691-.87963,2.52078-1.25364,3.802C108.60505,88.37722,108.70251,88.87844,108.857,88.94419Z" />
  <path
    class="e08dbb17-20b3-45ac-9aa8-3c5351940902"
    d="M23.62271,50.363c-.02947-.21137.01851-.49916-.10186-.62093a1.40928,1.40928,0,0,1-.33052-1.84822.99957.99957,0,0,0-.23018-.94688,7.78756,7.78756,0,0,0-1.04386-.35372q-.68744,1.48584-1.28535,3.01919c.81191.25075,1.62327.503,2.43733.74654A1.9822,1.9822,0,0,0,23.62271,50.363Z" />
  <path
    class="e08dbb17-20b3-45ac-9aa8-3c5351940902"
    d="M66.02428,72.51453c-.07164.18182.25187.7038.5014.79883,1.896.72213,3.81594,1.38225,5.73569,2.0406.13617.04667.44687-.03451.47774-.12439.16713-.48616.2716-.99374.39759-1.494-.30593-.05144-.61766-.0808-.91639-.15937-.43247-.114-.85737-.25823-1.28236-.39852-1.31416-.434-2.62673-.87225-4.18369-1.38974C66.55589,71.96945,66.15316,72.18793,66.02428,72.51453Z" />
  <path
    class="e08dbb17-20b3-45ac-9aa8-3c5351940902"
    d="M63.43206,86.51264c-.64253,1.57867-1.23634,3.17707-1.86513,4.76153-.34147.86055.40273.77142.81931,1.00244.628.34811.75224-.0637.87214-.52535.23494-.90517.46521-1.81165.71287-2.71345.25468-.92733.52778-1.84961.838-2.93164a2.04038,2.04038,0,0,0-.49635-.40882C63.42748,85.29443,63.58713,86.13151,63.43206,86.51264Z" />
  <path
    class="e08dbb17-20b3-45ac-9aa8-3c5351940902"
    d="M100.8791,46.39356c.27431-.87833.50112-1.77152.79049-2.81521-.14749-.187-.31247-.59886-.58464-.68977-.33286-.11092-.99906-.08071-1.09932.11008-.5983,1.13871-1.07642,2.34083-1.58867,3.52425a.281.281,0,0,0,.00524.231C98.61124,47.05321,100.76518,46.75888,100.8791,46.39356Z" />
  <path
    class="e08dbb17-20b3-45ac-9aa8-3c5351940902"
    d="M22.35325,58.35406c.19351.02777.38693.05565.578.08464.95221-.7689,1.79275-1.5955,1.47812-2.99291.44743-1.02236.91068-2.03836,1.3193-3.07577.04022-.10185-.232-.454-.3988-.48626-.50907-.09848-1.26132-.33558-1.51889-.09343-1.045.98233-1.21652,2.55351-.53732,3.28182-.37467.18874-.984.29863-1.07912.58156a16.077,16.077,0,0,0-.46194,2.49907q.22657.05051.45277.10111A.17329.17329,0,0,1,22.35325,58.35406Z" />
  <path
    class="e08dbb17-20b3-45ac-9aa8-3c5351940902"
    d="M109.67408,94.822q-.07239.249-.14469.49823c2.32922.744,4.656,1.49523,6.99279,2.21465.14656.04518.37-.15918.55762-.24747a1.93734,1.93734,0,0,0-.43584-.31024c-1.55266-.547-3.103-1.10241-4.67031-1.60476C111.22524,95.13259,110.44175,95.00193,109.67408,94.822Z" />
  <path
    class="e08dbb17-20b3-45ac-9aa8-3c5351940902"
    d="M77.80261,16.81736a8.026,8.026,0,0,0,.54545,1.31567q.19627-.00618.39245-.01216c.22175-.83175.45323-1.66163.65058-2.49777-.37758-.05715-.76067-.09605-1.14067-.14534C78.28269,15.96373,78.36191,16.47084,77.80261,16.81736Z" />
  <path
    class="e08dbb17-20b3-45ac-9aa8-3c5351940902"
    d="M76.54962,22.62968a12.27534,12.27534,0,0,0,.62224-1.163c.10222-.24654-.01487-.651.1416-.79724,1.19875-1.12028,1.21221-1.106.07463-2.64124-.49579,1.44894-.956,2.737-1.35185,4.04454C75.99911,22.19543,76.36874,22.441,76.54962,22.62968Z" />
  <path
    class="e08dbb17-20b3-45ac-9aa8-3c5351940902"
    d="M109.50189,79.34089q-.21675-.06889-.43322-.13777-1.41118,4.45443-2.8222,8.90857.20637.06594.413.1316Q108.08065,83.79208,109.50189,79.34089Z" />
  <path
    class="e08dbb17-20b3-45ac-9aa8-3c5351940902"
    d="M94.179,67.53125q4.18083,1.33866,8.36176,2.67734.06019-.21394.12065-.42817-4.16456-1.36295-8.32883-2.72589Q94.25564,67.2929,94.179,67.53125Z" />
  <path
    class="e08dbb17-20b3-45ac-9aa8-3c5351940902"
    d="M58.65915,76.683l-.47736.0101a9.428,9.428,0,0,0-.74486,1.81164c-.03909.18958.51282.6966.82688.72784,1.03124.10279,1.05958-.88328,1.23195-1.50609C59.56525,77.475,58.95835,77.03644,58.65915,76.683Z" />
  <path
    class="e08dbb17-20b3-45ac-9aa8-3c5351940902"
    d="M65.60892,76.29345A24.06476,24.06476,0,0,0,64.7046,78.954c-.0028.009.29864.11111.478.17583l-.0014.00767.00337-.007.02338.00832.013-.08305q.1668-.34218.33371-.68435l-.22569.00019.00431-.02731-.01768.02731q.047-.16849.0939-.33708l.16115.30949.62692-.67462-.00412-.02769a2.94822,2.94822,0,0,0,.55341-.86392c.06042-.24532-.15152-.55771-.24224-.84026C66.19525,76.05149,65.70086,76.084,65.60892,76.29345Zm.20707.553q.07142-.18491.144-.36915.04532.20034.09053.40077Zm.37056.74786q-.05051-.34247-.101-.6851l.22568.01721C66.27,77.14942,66.22826,77.37155,66.18655,77.59434Zm.20876-.776a.21955.21955,0,0,1-.03433.03826l.04386-.12561A.2245.2245,0,0,1,66.39531,76.81833Z" />
  <path
    class="e08dbb17-20b3-45ac-9aa8-3c5351940902"
    d="M59.41149,67.12356q1.50464.47334,3.00926.94678l.09745-.31958q-1.47923-.46971-2.95828-.93921Z" />
  <path
    class="e08dbb17-20b3-45ac-9aa8-3c5351940902"
    d="M59.52971,70.06652l1.71418.539.0794-.23045q-.8621-.27483-1.724-.54976Z" />
  <path class="e08dbb17-20b3-45ac-9aa8-3c5351940902" d="M72.95722,64.81471l-.02348.02292.00009.01749.02339-.00009Z" />
  <path class="e08dbb17-20b3-45ac-9aa8-3c5351940902" d="M73.43954,64.35961l.00776-.0232-.0043.00421-.01506.02815Z" />
  <path
    class="e08dbb17-20b3-45ac-9aa8-3c5351940902"
    d="M60.20676,65.545q1.265.24272,2.52992.4857l.14956.0505-.01235-.02413q.13875-.24888.27759-.49794l-.0174-.00337c.01254-.17153.07688-.42247.00693-.4683a8.49862,8.49862,0,0,0-1.01357-.50757q.56524.12135,1.13038.24242l.06837-.32043q-1.1424-.2152-2.28507-.43041l.36064.28058-.01094-.00374c-.1748-.09577-.3497-.19164-.52235-.2876-.167.19061-.33633.38113-.50561.57174l.0317.00365q.12963.34735.26094.69342.48316.01261.9668.02534l.03105.2313-.02768-.014.00028.00018-.00047-.00018.02862.02q-.4986-.12921-.997-.25842l-.00159-.0042-.01636-.00038.02506.02366-.00009-.00009.00019.00009Zm1.44276-.22587.03685-.23662c.1011.0347.20183.07014.30237.10559Z" />
  <path
    class="e08dbb17-20b3-45ac-9aa8-3c5351940902"
    d="M72.44711,65.59951l.0246-.02544.07436.46362q.19584-.10606.39188-.212-.0021-.48542-.00412-.97054l-.23559.00093.01-.02955-.02.02955.00084-.6893q-.32631.73008-.65292,1.46045.20959-.02555.41891-.05107Z" />
  <path class="e08dbb17-20b3-45ac-9aa8-3c5351940902" d="M72.71517,64.09586l-.026.00009-.00009.0708.0217-.04854Z" />
  <path
    class="e08dbb17-20b3-45ac-9aa8-3c5351940902"
    d="M72.938,64.1241l.0202-.02955q-.00042.36-.00093.72016.24283-.23709.48578-.47409.14379-.27189.28825-.54218c-.02909-.30453-.05836-.61046-.096-1.00169l-.45856.57987q-.01937-.171-.03854-.34212c-.08053.02693-.22157.03937-.232.08305-.07772.32267-.13066.65142-.191.97831l.23279-.00131Z" />
  <path
    class="e08dbb17-20b3-45ac-9aa8-3c5351940902"
    d="M70.9025,62.22847q-.08432.50953-.16835,1.01908.23514-.46324.47007-.92639Z" />
  <path class="e08dbb17-20b3-45ac-9aa8-3c5351940902" d="M70.73415,63.24755l-.03862.07632.02263.02067Z" />
  <path
    class="e08dbb17-20b3-45ac-9aa8-3c5351940902"
    d="M72.938,65.82566l.00019.0203.02226-.03236c-.06005.52329.14263.52076.476.25617l-.00739.0217.0231-.03217q.12655.17789.25337.356.432-1.26966.86429-2.53911l-.54321.01739q-.1755.73052-.3511,1.46073.08895-.57463.17882-1.15049a.09674.09674,0,0,1-.12224-.07791q-.14632.117-.29255.23373-.24663.73078-.49308,1.46147Z" />
  <path
    class="e08dbb17-20b3-45ac-9aa8-3c5351940902"
    d="M70.68234,63.40824q-.20946.36266-.42013.72381l.29153.0969Q70.61813,63.8186,70.68234,63.40824Z" />
  <path class="e08dbb17-20b3-45ac-9aa8-3c5351940902" d="M70.69553,63.32387l-.01319.08437.03647-.063Z" />
  <path
    class="e08dbb17-20b3-45ac-9aa8-3c5351940902"
    d="M68.02175,77.39465l.51992-.38739q-.1602-.11167-.32014-.22363Q68.12149,77.089,68.02175,77.39465Z" />
  <path
    class="e08dbb17-20b3-45ac-9aa8-3c5351940902"
    d="M63.34256,77.40214l-.01833.01908q-.0651.73947-.12982,1.48036l.16957.03919q.25337-.90657.50682-1.81305l-.27581.01394.02245-.02469-.02395.02478.02385-.02478-.02385.02469.13524-1.01712Q63.53556,76.76329,63.34256,77.40214Z" />
  <path
    class="e08dbb17-20b3-45ac-9aa8-3c5351940902"
    d="M68.27512,78.33368l.25926.15441q-.0028-.50308-.00589-1.00589Q68.4018,77.908,68.27512,78.33368Z" />
  <path class="e08dbb17-20b3-45ac-9aa8-3c5351940902" d="M68.27306,78.34041l.00206-.00673-.02348-.014Z" />
  <path class="e08dbb17-20b3-45ac-9aa8-3c5351940902" d="M65.55468,78.37137h.0303l-.01431-.0274-.00561.006Z" />
  <path
    class="e08dbb17-20b3-45ac-9aa8-3c5351940902"
    d="M36.21856,30.93032q-.091-.13635-.18219-.27272-.38187-.05037-.76394-.10064l-.03254.11813q.422.19444.8439.38907A.4263.4263,0,0,1,36.21856,30.93032Z" />
  <path class="e08dbb17-20b3-45ac-9aa8-3c5351940902" d="M36.02524,30.64085l.01113.01675.0086.00112Z" />
  <path
    class="e08dbb17-20b3-45ac-9aa8-3c5351940902"
    d="M36.02646,30.64179l.01851.01693.05659-.0144C36.07687,30.64432,36.05208,30.64338,36.02646,30.64179Z" />
  <path
    class="e08dbb17-20b3-45ac-9aa8-3c5351940902"
    d="M36.20734,30.61738l-.10578.02694a.2086.2086,0,0,0,.02637.00084A.3819.3819,0,0,0,36.20734,30.61738Z" />
  <path
    class="e08dbb17-20b3-45ac-9aa8-3c5351940902"
    d="M68.27353,78.34107l-.02189-.02142-.0375.19463C68.23406,78.45667,68.25408,78.39915,68.27353,78.34107Z" />
  <ellipse class="a2fc2e7b-101c-4566-ae3d-227971e593f4" cx="71.22386" cy="69.31642" rx="58.13399" ry="58.14119" />
</svg>
