<svg xmlns="http://www.w3.org/2000/svg" viewBox="0 0 102.88235 81.41176">
  <defs>
    <style>
      .aebfd42d-1a68-4dfa-82e0-6ff5c7f4e16a {
        fill: #b2b2b2;
      }
    </style>
  </defs>
  <path
    class="aebfd42d-1a68-4dfa-82e0-6ff5c7f4e16a"
    d="M98.74793,39.41Q77.41681,21.18181,56.09394,2.94929a5.08479,5.08479,0,0,0-3.56776-1.155c-7.47561.013-13.95132.00568-21.427.00271a4.56732,4.56732,0,0,1,.90416.60183Q53.30525,20.906,74.6573,39.38765c1.38474,1.20043,1.41111,1.90751.04884,3.08888Q53.28087,61.05568,31.852,79.63314a4.13164,4.13164,0,0,1-.67121.47582c1.778.0011,3.5558-.00305,5.33375-.00305,5.70729.00009,10.41488-.02,16.12178.01415A4.67848,4.67848,0,0,0,55.94263,79.081Q77.35171,60.759,98.79678,42.45483C100.159,41.29033,100.13267,40.59334,98.74793,39.41Z" />
  <path
    class="aebfd42d-1a68-4dfa-82e0-6ff5c7f4e16a"
    d="M67.86046,39.41Q46.52934,21.18181,25.20647,2.94929a5.08479,5.08479,0,0,0-3.56776-1.155c-7.47561.013-10.95132.00568-18.427.00271a4.56726,4.56726,0,0,1,.90415.60183Q25.41778,20.906,46.76983,39.38765c1.38474,1.20043,1.41111,1.90751.04885,3.08888Q25.3934,61.05568,3.96453,79.63314a4.13164,4.13164,0,0,1-.67121.47582c1.778.0011,3.5558-.00305,5.33375-.00305,5.70729.00009,7.41488-.02,13.12179.01415a4.67845,4.67845,0,0,0,3.3063-1.03909Q46.46424,60.759,67.90931,42.45483C69.27157,41.29033,69.2452,40.59334,67.86046,39.41Z" />
</svg>
