<svg xmlns="http://www.w3.org/2000/svg" viewBox="0 0 141.73228 141.73228">
    <defs>
        <style>
            .b2b5dceb-fbc0-4268-bcab-4947d287a6d5 {
                fill: #dbdce6;
            }
        </style>
    </defs>
    <path
        class="b2b5dceb-fbc0-4268-bcab-4947d287a6d5"
        d="M70.90772,20.47086q25.27652.00018,50.553-.00966a3.93113,3.93113,0,0,1,3.31468,1.20549c1.1173,1.32984,1.04063,3.03992-.29605,4.6759-3.43867,4.20862-6.90763,8.39248-10.36445,12.58627Q100.2415,55.76,86.35043,72.57659A4.22612,4.22612,0,0,0,85.34,75.50232c.022,10.04194-.04834,20.08425.0125,30.12582a4.83926,4.83926,0,0,1-3.03261,4.97013c-6.83736,3.27114-13.60085,6.6964-20.40406,10.03937-3.2208,1.58264-5.53789.11934-5.54043-3.49305q-.01466-20.86783.013-41.73562a4.031,4.031,0,0,0-.97021-2.78823Q36.59785,49.8721,17.83967,27.072a10.29222,10.29222,0,0,1-1.28009-1.78124,3.27023,3.27023,0,0,1,2.621-4.78717,14.89726,14.89726,0,0,1,1.615-.0318Q45.85163,20.46986,70.90772,20.47086Z"
    />
</svg>
