<svg
	id="uuid-8b87e896-aafa-4a77-a6f9-4a5340819f17"
	data-name="Ebene 1"
	xmlns="http://www.w3.org/2000/svg"
	xmlns:xlink="http://www.w3.org/1999/xlink"
	viewBox="0 0 31 16">
	<defs>
		<style>
			.uuid-66e00c66-0561-43b7-beaa-3ce49e6699ab {
				clip-path: url(#uuid-c34d6acd-6f3b-4e7f-b140-7be9b7283a75);
			}

			.uuid-301fa1d9-ab6c-4a75-8faf-542eacad6e28 {
				fill: none;
			}

			.uuid-301fa1d9-ab6c-4a75-8faf-542eacad6e28,
			.uuid-a50b3f12-6bc4-41aa-a055-77974d31ea97,
			.uuid-fd95406f-add6-48ee-8ef5-eec99ccdea32,
			.uuid-8d015f0e-b9fc-4208-8ad4-e7573cacd388 {
				stroke-width: 0px;
			}

			.uuid-a50b3f12-6bc4-41aa-a055-77974d31ea97 {
				fill: #e51e28;
			}

			.uuid-fd95406f-add6-48ee-8ef5-eec99ccdea32 {
				fill: #fff;
			}

			.uuid-8d015f0e-b9fc-4208-8ad4-e7573cacd388 {
				fill: #24346b;
			}
		</style>
		<clipPath id="uuid-c34d6acd-6f3b-4e7f-b140-7be9b7283a75">
			<rect class="uuid-301fa1d9-ab6c-4a75-8faf-542eacad6e28" x=".5" y=".09" width="30" height="15.83" rx="1" ry="1">
			</rect>
		</clipPath>
	</defs>
	<g class="uuid-66e00c66-0561-43b7-beaa-3ce49e6699ab">
		<g>
			<g>
				<rect class="uuid-fd95406f-add6-48ee-8ef5-eec99ccdea32" x=".5" y=".09" width="29.99" height="15.8"></rect>
				<polygon
					class="uuid-a50b3f12-6bc4-41aa-a055-77974d31ea97"
					points="30.49 6.41 17.29 6.41 17.29 .09 13.68 .09 13.68 6.41 .51 6.41 .51 9.57 13.68 9.57 13.68 15.89 17.29 15.89 17.29 9.57 30.49 9.57 30.49 6.41">
				</polygon>
			</g>
			<g>
				<polygon class="uuid-8d015f0e-b9fc-4208-8ad4-e7573cacd388" points=".5 1.93 .5 5.37 7.04 5.37 .5 1.93"></polygon>
				<polygon
					class="uuid-8d015f0e-b9fc-4208-8ad4-e7573cacd388"
					points="4.11 .09 4.01 .09 12.5 4.58 12.5 .09 4.11 .09">
				</polygon>
				<polygon
					class="uuid-a50b3f12-6bc4-41aa-a055-77974d31ea97"
					points="10.57 5.35 .5 .09 .5 1.33 8.17 5.35 10.57 5.35">
				</polygon>
				<polygon
					class="uuid-a50b3f12-6bc4-41aa-a055-77974d31ea97"
					points="20.43 10.63 30.5 15.89 30.5 14.65 22.83 10.63 20.43 10.63">
				</polygon>
			</g>
			<g>
				<polygon class="uuid-8d015f0e-b9fc-4208-8ad4-e7573cacd388" points=".5 14.07 .5 10.63 7.04 10.63 .5 14.07">
				</polygon>
				<polygon
					class="uuid-8d015f0e-b9fc-4208-8ad4-e7573cacd388"
					points="4.11 15.91 4.01 15.91 12.5 11.43 12.5 15.91 4.11 15.91">
				</polygon>
				<polygon
					class="uuid-a50b3f12-6bc4-41aa-a055-77974d31ea97"
					points="10.52 10.63 .51 15.88 2.85 15.89 12.51 10.84 12.51 10.63 10.52 10.63">
				</polygon>
			</g>
			<g>
				<polygon class="uuid-8d015f0e-b9fc-4208-8ad4-e7573cacd388" points="30.5 1.93 30.5 5.37 23.96 5.37 30.5 1.93">
				</polygon>
				<polygon
					class="uuid-8d015f0e-b9fc-4208-8ad4-e7573cacd388"
					points="26.89 .09 26.99 .09 18.5 4.57 18.5 .09 26.89 .09">
				</polygon>
				<polygon
					class="uuid-a50b3f12-6bc4-41aa-a055-77974d31ea97"
					points="30.49 .09 28.24 .09 18.51 5.17 18.51 5.35 20.57 5.35 30.49 .09">
				</polygon>
			</g>
			<g>
				<polygon
					class="uuid-8d015f0e-b9fc-4208-8ad4-e7573cacd388"
					points="30.5 14.07 30.5 10.63 23.96 10.63 30.5 14.07">
				</polygon>
				<polygon
					class="uuid-8d015f0e-b9fc-4208-8ad4-e7573cacd388"
					points="26.89 15.91 26.99 15.91 18.5 11.42 18.5 15.91 26.89 15.91">
				</polygon>
			</g>
		</g>
	</g>
</svg>

