<svg xmlns="http://www.w3.org/2000/svg" viewBox="0 0 141.73228 141.73228">
  <defs>
    <style>
      .ba83e485-0dda-4f54-b759-24ad3d6fc64a {
        fill: #dbdce6;
      }
    </style>
  </defs>
  <path
    class="ba83e485-0dda-4f54-b759-24ad3d6fc64a"
    d="M99.70172,16.33857a36.78114,36.78114,0,0,1,25.40079,9.90854,31.96552,31.96552,0,0,1-.00038,47.143L70.86239,124.57171,16.6282,73.39051a31.97058,31.97058,0,0,1-.0001-47.14409,36.78991,36.78991,0,0,1,25.40572-9.90785,36.79106,36.79106,0,0,1,25.326,9.83434,5.00234,5.00234,0,0,0,6.942.07341,36.78069,36.78069,0,0,1,25.4-9.90775m0-5a41.91639,41.91639,0,0,0-28.832,11.27157h0A41.92077,41.92077,0,0,0,42.03383,11.33859,41.92669,41.92669,0,0,0,13.19625,22.61016a36.96906,36.96906,0,0,0,0,54.41651l55.739,52.60128a2.80776,2.80776,0,0,0,3.85409.0001l55.74434-52.60138a36.9641,36.9641,0,0,0,0-54.41651A41.91639,41.91639,0,0,0,99.70171,11.33859Z" />
</svg>
