<svg xmlns="http://www.w3.org/2000/svg" viewBox="0 0 141.73228 141.73228">
  <defs>
    <style>
      .eb7a23f9-d799-46b5-a1be-7f5ad3bd04c7 {
        fill: none;
        stroke: #dbdce6;
        stroke-linecap: round;
        stroke-linejoin: round;
        stroke-width: 5px;
      }
      .b1cd203f-d020-4ac3-b923-d8a9d5ddeed4 {
        fill: #dbdce6;
      }
    </style>
  </defs>
  <path
    class="eb7a23f9-d799-46b5-a1be-7f5ad3bd04c7"
    d="M15.43874,89.77933,42.6818,63.83745s9.318-10.52374,17.083,0C63.80521,69.31334,70.45257,78.309,75.9,85.67881c5.02157,6.79378,9.02344,12.206,9.02344,12.206" />
  <path
    class="eb7a23f9-d799-46b5-a1be-7f5ad3bd04c7"
    d="M75.9,85.67881,89.00262,73.78746s7.5681-6.21879,13.93558-.5096c6.53473,5.85915,24.20961,20.622,24.20961,20.622" />
  <circle class="b1cd203f-d020-4ac3-b923-d8a9d5ddeed4" cx="83.35083" cy="43.72611" r="9.7588" />
  <path
    class="b1cd203f-d020-4ac3-b923-d8a9d5ddeed4"
    d="M122.08678,16.618a3.50789,3.50789,0,0,1,3.50394,3.50391V121.6103a3.5079,3.5079,0,0,1-3.50394,3.504H20.59841a3.50792,3.50792,0,0,1-3.50394-3.504V20.12194A3.50791,3.50791,0,0,1,20.59841,16.618H122.08678m0-5H20.59841a8.50393,8.50393,0,0,0-8.50394,8.50391V121.6103a8.50394,8.50394,0,0,0,8.50394,8.504H122.08678a8.50392,8.50392,0,0,0,8.50394-8.504V20.12194a8.50392,8.50392,0,0,0-8.50394-8.50391Z" />
</svg>
