<svg xmlns="http://www.w3.org/2000/svg" viewBox="0 0 141.73228 141.73228">
  <defs>
    <style>
      .fbc86e02-e52d-4a57-b4cb-7e063dde21a5 {
        fill: #dbdce6;
      }
    </style>
  </defs>
  <path
    class="fbc86e02-e52d-4a57-b4cb-7e063dde21a5"
    d="M76.29044,87.08947l12.96122-11.763s7.4864-6.15167,13.78515-.50411c6.46419,5.7959,25.19426,20.97336,25.19426,20.97336v30.10774s-.40966,1.633-1.63865,1.633H17.41729s-1.63865.20412-1.63865-2.0412V91.81541L43.43088,65.48389s9.21741-10.41013,16.89859,0c3.99679,5.41678,10.57239,14.31528,15.961,21.60558,4.96737,6.72044,8.926,12.07427,8.926,12.07427" />
  <circle class="fbc86e02-e52d-4a57-b4cb-7e063dde21a5" cx="83.66088" cy="45.58965" r="9.65345" />
  <path
    class="fbc86e02-e52d-4a57-b4cb-7e063dde21a5"
    d="M122.4869,16.399a3.5079,3.5079,0,0,1,3.50394,3.50392V121.3912a3.5079,3.5079,0,0,1-3.50394,3.50391H20.99865a3.50789,3.50789,0,0,1-3.50394-3.50391V19.90292A3.50789,3.50789,0,0,1,20.99865,16.399H122.4869m0-5H20.99865a8.50394,8.50394,0,0,0-8.50394,8.50392V121.3912a8.50393,8.50393,0,0,0,8.50394,8.50391H122.4869a8.50394,8.50394,0,0,0,8.50394-8.50391V19.90292A8.50394,8.50394,0,0,0,122.4869,11.399Z" />
</svg>
