<svg
    id="a7971610-90f0-4385-9466-2f05046ece30"
    data-name="Ebene 1"
    xmlns="http://www.w3.org/2000/svg"
    xmlns:xlink="http://www.w3.org/1999/xlink"
    viewBox="0 0 297.52941 65.64706"
>
    <defs>
        <style>
            .aca9961f-94f6-445e-8926-c97394bf792d {
                fill: none;
            }
            .a00340fa-c415-4881-a04d-ff30eb687a17 {
                fill: #dbdce6;
            }
            .f3884d83-5554-4097-956b-53079d576abb {
                clip-path: url(#ef4b403f-1af6-426e-983f-4e35751ef914);
            }
        </style>
        <clipPath id="ef4b403f-1af6-426e-983f-4e35751ef914">
            <path
                class="aca9961f-94f6-445e-8926-c97394bf792d"
                d="M99.4083,27.74787h-.51956a6.44089,6.44089,0,0,1-4.326-1.732A9.89484,9.89484,0,0,0,87.763,23.482c-5.98184,0-10.31986,4.52246-10.31986,10.75285,0,6.26246,4.338,10.809,10.31986,10.809a9.78146,9.78146,0,0,0,7.45722-3.15128,3.57517,3.57517,0,0,1,2.64212-1.17072h1.75342a13.2079,13.2079,0,0,0-.20749-12.974Z"
            />
        </clipPath>
    </defs>
    <path
        class="a00340fa-c415-4881-a04d-ff30eb687a17"
        d="M17.484,50.259c-9.17308,0-15.89787-6.78909-15.89787-16.0816,0-9.23281,6.72479-16.08161,15.89787-16.08161,7.7675,0,13.5759,4.768,15.287,11.74081H27.51373A10.37754,10.37754,0,0,0,17.484,22.86377c-6.3596,0-10.88414,4.83229-10.88414,11.31363,0,6.541,4.52454,11.37334,10.88414,11.37334a10.32332,10.32332,0,0,0,10.02977-6.90853H32.7112C30.99784,45.55074,25.25146,50.259,17.484,50.259Z"
    />
    <path
        class="a00340fa-c415-4881-a04d-ff30eb687a17"
        d="M35.70611,34.1774c0-9.29711,6.84881-16.08161,16.20564-16.08161,9.35452,0,16.20333,6.7845,16.20333,16.08161,0,9.35682-6.84881,16.0816-16.20333,16.0816C42.55492,50.259,35.70611,43.53422,35.70611,34.1774Zm27.39524,0a10.89265,10.89265,0,0,0-11.1896-11.31363A10.89318,10.89318,0,0,0,40.71985,34.1774c0,6.541,4.70826,11.37334,11.1919,11.37334C58.39308,45.55074,63.10135,40.71844,63.10135,34.1774Z"
    />
    <path
        class="a00340fa-c415-4881-a04d-ff30eb687a17"
        d="M108.71644,1.94987h4.892V49.64808h-4.892Zm8.07066,31.736c0-1.28157.42948-2.13595,2.446-4.033l11.61909-10.94615h6.17587L122.963,31.97714a2.08752,2.08752,0,0,0-.79466,1.46531,2.0958,2.0958,0,0,0,.79466,1.46989l14.676,14.73574h-6.60306L119.17339,37.78324C117.2763,35.82644,116.7871,34.848,116.7871,33.6859Z"
    />
    <path
        class="a00340fa-c415-4881-a04d-ff30eb687a17"
        d="M137.6987,34.1774c0-9.23281,6.90853-16.08161,16.26535-16.08161,9.29481,0,16.08161,6.7845,16.08161,15.89787V49.64808H165.3994V43.77767A14.409,14.409,0,0,1,153.53686,50.259C144.4855,50.259,137.6987,43.46991,137.6987,34.1774ZM153.902,22.86377a10.92684,10.92684,0,0,0-11.1896,11.31363c0,6.541,4.70826,11.37334,11.1896,11.37334,6.42162,0,11.12989-4.8323,11.12989-11.37334A10.91312,10.91312,0,0,0,153.902,22.86377Z"
    />
    <path
        class="a00340fa-c415-4881-a04d-ff30eb687a17"
        d="M176.89217,6.59842a3.55024,3.55024,0,0,1,3.54843-3.54613,3.57611,3.57611,0,1,1,0,7.152A3.56346,3.56346,0,0,1,176.89217,6.59842Zm5.99213,12.10829V49.64808h-4.892V18.70671Z"
    />
    <path
        class="a00340fa-c415-4881-a04d-ff30eb687a17"
        d="M206.30622,63.71317c-7.58146,0-13.57589-4.15706-15.53269-11.25391H196.095a10.49594,10.49594,0,0,0,10.2112,6.66507c6.05414,0,10.57868-3.9136,10.57868-10.2112v-4.8277a13.62677,13.62677,0,0,1-11.55708,5.87041c-9.2328,0-15.89787-6.54564-15.89787-15.77844,0-9.35683,6.72478-16.08161,16.14362-16.08161,9.41654,0,16.20333,6.72478,16.20333,16.02189V48.91313C221.7769,58.0265,215.17384,63.71317,206.30622,63.71317Zm-.67294-40.8494c-6.60306,0-11.1896,4.77258-11.1896,11.31363,0,6.60535,4.64626,11.37334,11.25161,11.37334,6.54335,0,11.12989-4.768,11.12989-11.37334C216.82518,27.63635,212.17663,22.86377,205.63328,22.86377Z"
    />
    <path
        class="a00340fa-c415-4881-a04d-ff30eb687a17"
        d="M243.29943,18.09579c8.37843,0,14.5543,5.50293,14.5543,15.1032V49.64808h-4.892V33.25871c0-6.7845-4.09734-10.39494-9.66229-10.39494s-9.66228,3.61044-9.66228,10.39494V49.64808h-4.892V33.199C228.74514,23.59872,234.92331,18.09579,243.29943,18.09579Z"
    />
    <path
        class="a00340fa-c415-4881-a04d-ff30eb687a17"
        d="M279.43827,50.259c-9.41654,0-16.08161-6.60535-16.08161-16.0816,0-9.41654,6.91082-16.08161,16.26535-16.08161,8.80561,0,15.28694,5.98983,15.28694,14.552a13.89153,13.89153,0,0,1-.30546,3.05923H270.57294c-1.28386,0-1.9568.55121-1.9568,1.649,0,3.79418,4.40281,8.50245,10.94615,8.50245,4.15706,0,8.13268-1.71335,10.02747-5.32379h4.954C292.15749,47.08035,286.22736,50.259,279.43827,50.259ZM268.4324,31.66938h20.11924c.85438,0,1.40559-.42719,1.40559-1.28157,0-3.67015-4.03533-7.95123-10.27321-7.95123C273.50815,22.43658,269.10534,26.04243,268.4324,31.66938Z"
    />
    <path
        class="a00340fa-c415-4881-a04d-ff30eb687a17"
        d="M97.8609,41.32176a2.97316,2.97316,0,0,0-2.19669.97747,10.44037,10.44037,0,0,1-7.90081,3.34732c-6.38154,0-10.92211-4.84753-10.92211-11.41309,0-6.50409,4.54057-11.35162,10.92211-11.35162a10.49384,10.49384,0,0,1,7.20418,2.68983,5.83487,5.83487,0,0,0,3.92283,1.57347l2.9263,0a.22992.22992,0,0,0,.20871-.32507,15.21852,15.21852,0,0,0-14.262-8.7243c-9.20408,0-15.95366,6.87232-15.95366,16.13767,0,9.32663,6.74958,16.13768,15.95366,16.13768,6.63558,0,11.80128-3.42687,14.25032-8.72534a.23.23,0,0,0-.20921-.324Z"
    />
    <g class="f3884d83-5554-4097-956b-53079d576abb">
        <path
            class="a00340fa-c415-4881-a04d-ff30eb687a17"
            d="M83.31954,35.85092c-.05117-.04693-.09453-.11472-.15483-.13733-.30086-.11281-.60486-.21769-.91011-.31824Q80.20344,34.71971,78.151,34.048l.2183.45857c-.05575.02183-.11956.073-.16581.0603-.1873-.05149-.36763-.12766-.55368-.18451a3.16322,3.16322,0,0,0-.32883-.06384l.04238-.17492c-.03259.014-.06739.044-.09754.03991a3.48538,3.48538,0,0,1-.84029-.31212,3.97531,3.97531,0,0,1-.83979-.28493l.30469.023a4.76388,4.76388,0,0,0-.6483-.33873A.1204.1204,0,0,1,75.179,33.2c-.017-.08756-.02281-.17729-.03294-.26617.213.06467.213.06467.26812-.13608.16288-.59268.16288-.59268-.47632-.76353-.64-.17108-.64-.17108-.80912.47213a.24176.24176,0,0,0-.01727.078c.00289.03027.01267.07989.03071.08559.17029.05381.34153.10628.51545.14636.1225.02827.21974.03766.15592.21556-.1233.34372-.22285.69592-.33223,1.0446l.43711-1.04217.05651.02222c-.08555.28806-.164.57848-.25827.86369-.15788.47769-.32374.95281-.49139,1.42719a1.06281,1.06281,0,0,1-.137.24814.85426.85426,0,0,1-.14375-.06862,1.12634,1.12634,0,0,1-.36194.09482c-.52438-.047-1.04666-.11748-1.56969-.17946q-1.41156-.16728-2.82322-.334c-.12723-.01495-.17164-.06281-.12052-.19584.08158-.21238.14709-.43092.21938-.64688l-.08173-.03171c-.06213.16447-.1332.32619-.18422.494-.0715.23526-.17435.37027-.45946.2855-.23083-.06864-.26617-.10745-.168-.33689.10507-.24546.19356-.49807.29895-.74341a1.5469,1.5469,0,0,1,.17338-.29458c.22351-.3075.45317-.61057.67908-.91633a.40237.40237,0,0,0,.0288-.07488c.10966-.243.21182-.49.33486-.72606.03661-.07021.13356-.10809.20058-.16354.0589-.04875.1713-.12549.16173-.14793-.03658-.08576-.09842-.19679-.17646-.22346-1.15083-.39327-2.30684-.77139-3.45877-1.16147-.206-.06974-.31007-.03172-.37445.18656a5.88935,5.88935,0,0,1-.277.69793c-.01921.0436-.088.06533-.13393.09714-.00259-.05129-.005-.1026-.00781-.15389-.00166-.0301-.004-.06015-.00721-.10667l-.4257.139v10.972c.03488-.03631.08416-.06658.10229-.1099a.48009.48009,0,0,1,.57315-.35839.4349.4349,0,0,1,.12921.05682.52057.52057,0,0,1-.07706.08694c-.08271.05991-.21439.10082-.06612.22665-.037.03041-.06979.07789-.11173.08829-.1818.045-.36625.07909-.54974.11716,0,1.59558.00194,3.19121-.00347,4.7868-.00047.13449.03027.16588.16486.16493.95014-.00673,1.90036-.00358,2.85055-.00358a6.62573,6.62573,0,0,1,1.87249-1.07066.41133.41133,0,0,1,.3238.04637.603.603,0,0,0,.69783-.04578.51646.51646,0,0,1,.6226-.03179.7464.7464,0,0,0,.7373-.00815c.26309-.11366.43729.06067.64289.12877.03216.01064.03392.15429.0269.23443-.02185.24945-.05467.498-.08323.74681h3.28085l.10926-.3811c.15311.14956.2242.07089.28535-.11014.02349-.06955.13121-.11061.20054-.16467a1.48837,1.48837,0,0,1,.06423.26806,3.82513,3.82513,0,0,1-.014.38785h2.15138q.13309-.57548.26734-1.1507c.00353-.01505.02783-.02423.03473-.03962.0785-.17489.16544-.34685.23063-.52666.10528-.29034.19-.58817.29647-.87805a.82517.82517,0,0,1,.14038-.20027c.07324.071.154.187.18649.17472.18669-.07045.30376.031.44121.11962a.20326.20326,0,0,0,.19547-.03487c.13209-.24195.24365-.49507.36363-.74369.07131-.14778.01023-.23568-.12377-.29984-.1466-.07021-.19647.01782-.22466.13425-.06744.2785-.13065.558-.19555.83709l-.065.00367a1.78554,1.78554,0,0,1,.00269-.30021c.04687-.27062-.05138-.36985-.31944-.30554-.07933.019-.15751.04283-.30928.08447.1595-.32722.28824-.58435.40893-.84521.02293-.04958.0012-.11905.022-.17051a4.03093,4.03093,0,0,1,.23629-.52534,1.61082,1.61082,0,0,1,.26888-.27453h-.26333a2.86333,2.86333,0,0,1,.09776-.32377,1.575,1.575,0,0,1,.20619.05422c.09722-.2782.19657-.57449.30424-.86775.15385-.419.31374-.83572.47106-1.25343a6.12806,6.12806,0,0,0,.16339.65329c.04682.12994.16494.15421.22337-.005.14783-.403.28959-.80846.41833-1.21778a.26919.26919,0,0,0-.05611-.2404.39832.39832,0,0,0-.2971-.0671c-.09392.02457-.19344.12135-.05844.243a.22619.22619,0,0,1-.06876.11391,2.05941,2.05941,0,0,1-.222.12908c.10091-.30539.19539-.61318.30541-.91532.06652-.1827.10515-.31792-.176-.274-.04035.00632-.09176-.058-.13806-.08961.043-.01079.09791-.00871.12668-.03507a1.24183,1.24183,0,0,0,.1667-.19718,1.43439,1.43439,0,0,0,.08936-.16567l.14394.14852c.02405-.06671.0646-.16442.09421-.26531.03015-.10263.0382-.21268.07552-.3121.17973-.47872.18208-.47784-.31959-.53909a.08085.08085,0,0,1-.0265-.0032c-.1007-.05308-.201-.10694-.3014-.1606.1094-.01486.21849-.03444.32842-.042.03961-.00274.10681.01234.11777.03793.06644.15537.13958.04386.17-.00651.0198-.03279-.02569-.1084-.04808-.16226a1.31868,1.31868,0,0,0-.06984-.1284.29562.29562,0,0,1,.06854-.02784.233.233,0,0,1,.25217.27375.36049.36049,0,0,0,.01833.11582c.03091-.0199.08193-.03409.08942-.06059.049-.1735.16018-.34988-.01677-.52105-.03242-.03135-.03058-.09811-.04456-.14852l.11888-.02415Z"
        />
        <path
            class="a00340fa-c415-4881-a04d-ff30eb687a17"
            d="M103.11036,46.89619h.19569l.01532-.06083-.8599-.32253-.03308.06962.15683.14046a5.67373,5.67373,0,0,1-.7002-.129c-.64564-.1997-1.28894-.409-1.92486-.63753-.65858-.23671-1.3059-.50454-1.96117-.75069-.35326-.1327-.3562-.12509-.2752-.48307.00989-.04368.01921-.08758.03137-.13065.07892-.27926-.184-.62373-.43567-.51325-.206.0904-.28545-.02153-.41358-.07894-.21358-.09565-.44431-.30681-.63205-.27267a1.62752,1.62752,0,0,1-.85992-.2026c-.57964-.19082-1.132-.46445-1.69559-.70416-.1572-.06688-.2696-.06712-.30143.14795a1.98312,1.98312,0,0,1-.13562.46286c-.02215.05342-.12174.12267-.16689.11095-.32631-.08464-.6516-.17707-.96989-.288-.6691-.23326-1.334-.47853-2.00008-.72052q-.96218-.34962-1.92285-.70331c-.00455-.00166-.00453-.01583-.01236-.04661h.45082l.01-.07021a2.631,2.631,0,0,0-.74883-.10581.9157.9157,0,0,1-.525-.07126c-.14885-.06162-.36564-.17579-.45779.10885-.14328.44257-.28584.88544-.433,1.32672q-.39056,1.171-.78688,2.34007c-.2044.60122-.4146,1.20048-.62223,1.80062h.16136c.22307-.70742.44169-1.41628.67029-2.12189.33041-1.01976.66866-2.037,1.00222-3.05569.1042-.31822.1112-.311.43179-.19956q2.42181.84182,4.85039,1.66405c.20751.06976.24637.14337.17437.33813a4.04173,4.04173,0,0,0-.16214.61052c-.03624.18167-.11981.23648-.29658.17594-.52485-.17973-1.05275-.35054-1.57772-.53q-.93828-.32066-1.87344-.6505c-.21016-.07387-.41713-.157-.62471-.238-.173-.06749-.27317-.0358-.33041.16562-.18524.652-.37883,1.3021-.588,1.94683-.20614.63538-.4352,1.26332-.65419,1.89451h2.09759c.24437-.63129.0763-.5993.80692-.36179.32727.10639.64558.24035.968.36179h2.04381l.09925-1.15956a.98606.98606,0,0,0,.21035.04534.57343.57343,0,0,0,.16621-.05633.15567.15567,0,0,1,.08838-.01267c.20345.07439.40069.17041.60893.2254.1431.03778.35615-.07939.3501.21037-.00059.02716.08066.06277.12869.08318q.78675.33409,1.57515.66427h1.237c-.41627-.26208-.835-.52039-1.24656-.78974-.074-.04847-.10508-.16554-.18023-.20866-.06876-.03944-.1259-.22363-.25566-.06022-.023.029-.09644.03152-.14389.0254-.39-.05038-.78242-.09022-1.16823-.164a9.32826,9.32826,0,0,1-1.11326-.277c-.44148-.14251-.43617-.159-.64674.21385.132-.16767-.0404-.47279.28235-.56294.0392-.01094.05085-.12662.07206-.19477.11445-.36723.231-.73384.34-1.10271.0408-.138.09752-.18789.25017-.13459.40516.14146.8157.26768,1.22509.39679.09289.02931.18985.04581.285.06817l-.688-.31684.01456-.04652c.05386.00905.10794.01688.1615.02743.10875.02141.1571.00871.1467-.1319-.00756-.10206.06512-.301.0951-.29964a1.06,1.06,0,0,1,.45.11653c.04245.023.00707.18955.00714.29042.0001.115,0,.23,0,.3559l-.194.0001c.48452.18078.96644.36823,1.4537.54055.692.24473,1.38741.47994,2.08265.71545.16691.05653.27544.09433.18744.33087-.1454.39091-.23071.80422-.34136,1.20808h1.61354c-.322-.13025-.64025-.27106-.96732-.387-.20656-.07322-.293-.16043-.19293-.38821a3.115,3.115,0,0,0,.17408-.59089c.03226-.14826.08531-.18742.23541-.13608,1.31089.44843,2.62428.88956,3.93571,1.33639a3.93912,3.93912,0,0,1,.36483.16576h.69917l-.49927-.17731Z"
        />
        <path
            class="a00340fa-c415-4881-a04d-ff30eb687a17"
            d="M65.41119,22.318l.53212.13486.03284-.04317.01057.05974c.08425-.02313.1755-.07926.25146-.06319.22567.04784.267-.03959.22393-.23707a.64755.64755,0,0,1,.03232-.20413c.12155.08738.32505.06864.25565.30086l.00147.001c-.14289.22163-.27718.4497-.43514.66a.282.282,0,0,1-.23891.07378c-.22559-.05055-.44468-.13023-.66631-.19862v.86055a10.36342,10.36342,0,0,0,1.25038.37328c.15076.02709.38881.18754.54021-.05531l.55561.36c-.026.02866-.05208.08215-.078.0821-.23577-.00054-.42094.05188-.46174.3315-.00428.02942-.14188.07344-.20056.05535-.409-.12621-.81281-.26922-1.21988-.40188-.1261-.04111-.25719-.06687-.386-.09966v.59162c.11142.03123.22521.05587.33383.09487a8.685,8.685,0,0,0,1.18737.42239,5.8839,5.8839,0,0,1,1.70716.68,3.84216,3.84216,0,0,0,.82275.38339c.339.09259.70441.08459,1.04964.16011a2.77583,2.77583,0,0,1,.50324.248,1.52423,1.52423,0,0,0,.27549.07554,1.62084,1.62084,0,0,1,.34247.082c.39065.1951.77283.40707,1.1613.60667.03759.01931.09678-.00345.14594-.00668-.01-.04984-.00281-.12115-.03323-.1456a3.04156,3.04156,0,0,0-.31251-.20433c-.16185-.1-.24857-.21519-.15194-.41964a4.13294,4.13294,0,0,0,.16559-.49583.215.215,0,0,0-.104.1205c-.07434.17092-.10574.426-.23308.48955-.12153.06069-.34624-.0678-.51908-.131-.36835-.13461-.73617-.27236-1.09527-.42929a.29049.29049,0,0,1-.14666-.2323c.04177-.20687.13684-.40232.197-.60638.06465-.219.15534-.27635.35181-.11609a2.70536,2.70536,0,0,0,.45689.27853c.04508.02371.11443.00134.17264.00012-.01886-.04767-.024-.11377-.05895-.13985-.16265-.12133-.04394-.14568.10489-.18351-.185-.10723-.36082-.29333-.48073-.26239-.31684.08165-.252-.09874-.22364-.25308a3.04229,3.04229,0,0,1,.13606-.43041c.05146-.14947.10713-.29749.16094-.44615l-.0426-.01226-.14384.24355-.05882-.03164c.15888-.43379.32058-.86657.4759-1.30164.19491-.54594.38455-1.09376.57648-1.64075h-.96813l.0521.108.05672.16259.004-.00331c-.09789.11807-.13741.0464-.17066-.04556l.06015-.0637-.06147.054.00538-.212h-.26891c-1.748,0-3.496.00272-5.24395-.00455-.1605-.00069-.20257.0312-.19285.19307C65.42321,21.76151,65.41119,22.0401,65.41119,22.318Zm1.98577.57553a5.82917,5.82917,0,0,1-.26783.64056.16453.16453,0,0,1-.14269.07089,1.71213,1.71213,0,0,1-.3-.17215.91341.91341,0,0,1-.2935-.28062,3.31176,3.31176,0,0,0,.38612.17716.26157.26157,0,0,0,.17506-.05408c-.0116-.09744-.02183-.254-.07828-.27637-.18559-.07336-.238-.13052-.19454-.32472.03-.134.049-.27038.07263-.4058.19718.1317.401.25511.58685.40125A.25151.25151,0,0,1,67.397,22.89352Z"
        />
        <path
            class="a00340fa-c415-4881-a04d-ff30eb687a17"
            d="M111.21186,21.31971c-.10757-.10757-.40667-.02361-.62179-.02361.22256.15869.22292.24806.01732.44091a2.47125,2.47125,0,0,0-.2043.24622l-.13574-.68713h-3.7649a3.10006,3.10006,0,0,1-.25951.30449c-.727.66418-1.45855,1.32325-2.18721,1.98557a.7589.7589,0,0,0-.09169.12563l.03678.02878,1.191-1.02234.05689.05849c-.54241.89447-1.48673,1.40508-2.13423,2.13168l1.56157-1.04056.05208.0646-1.4229,1.24719.04711.05259,1.71835-1.37441.0497.06183-.82454.69066.03345.04194.68946-.53228a.26139.26139,0,0,1-.10224.19109c-.6227.51043-1.24915,1.01631-1.86864,1.53056a3.66377,3.66377,0,0,0-.329.35223.245.245,0,0,0,.2102-.0147c.32017-.2232.63433-.45506.95479-.67782a3.9024,3.9024,0,0,1,.76258-.49553,6.9331,6.9331,0,0,0,1.493-.95428c.04152-.02958.11312-.017.17075-.024a.42091.42091,0,0,1-.05579.13941c-.10133.10762-.21236.20611-.31964.30816a2.84389,2.84389,0,0,0,.51988-.27449c.15887-.103.30819-.22085.46727-.32353.39268-.25344.394-.25143.48736-.21908-.37555.303-.75142.60587-1.13693.91652.19038.15539.307.05628.434-.03436.17409-.12421.19139-.11126.25163.07266.01057.03225.09013.05993.13711.05882.14783-.00342.29531-.02155.44294-.034l-.00477-.004c.2579.08643.51812.16615.77176.26308a.82541.82541,0,0,1,.19887.16136l-.03228.06749.22322-.0789-.02151.17649a.77845.77845,0,0,0,.22173-.04456c.209-.112.31117-.07895.33126.1478.01828.20655.08895.257.26788.14672.07615-.047.15664-.08709.23639-.12788q.75213-.38472,1.50489-.7683V23.44746c-.076.00908-.15167.0217-.22787.02621-.07934.00467-.15911.00149-.23869.00173a.69916.69916,0,0,1,.06575-.21458,1.04878,1.04878,0,0,1,.198-.17.87068.87068,0,0,0-.69575-.02973.25588.25588,0,0,0-.04561.1377.88418.88418,0,0,0-.00184.13975c-.05434-.04287-.15392-.08511-.15455-.12877a1.46433,1.46433,0,0,1,.05883-.39419c.055-.205.21206-.08117.32954-.1007.06906-.01148.125-.10713.18473-.16706.02846-.02861.0519-.06218.07762-.09353.03066.03886.07591.07371.08805.11768.01341.0485-.02695.12439-.00238.15463a.94876.94876,0,0,0,.193.14639,1.59616,1.59616,0,0,1,.08266-.143.74743.74743,0,0,1,.08849-.08932v-.6992C111.23548,21.72637,111.31944,21.42726,111.21186,21.31971Zm-3.67878,3.31376c-.0626-.0539-.16-.10475-.01818-.18235.16806-.09191.33563-.18524.50815-.26808.03636-.01744.09331.00793.19574.02009l-.38022.26443c.36449.09326.51914-.18233.73974-.294a.7134.7134,0,0,1,.33276-.09876C108.4658,24.29245,108.17232,24.901,107.53308,24.63347Z"
        />
        <path
            class="a00340fa-c415-4881-a04d-ff30eb687a17"
            d="M75.48124,23.37194c.7766.26771,1.558.5213,2.33716.78171.13784.04608.25858.09972.374-.06881.03964-.05792.19226-.03851.29325-.05442a.99092.99092,0,0,1,.02915.20822c-.0117.17242.03773.21647.20048.13251.05247-.02707.13344.0011.20135.004a.90827.90827,0,0,0-.06328.15384.61351.61351,0,0,0,.00144.14419c.04353-.02117.11-.031.1269-.06532a4.828,4.828,0,0,0,.359-.79752c.04688-.1665.10013-.1873.229-.14092.336.12088.66993.24725,1.00472.37144-.065.09492-.34147-.145-.26847.16835-.04862.00585-.10476.03-.14435.01383a2.05366,2.05366,0,0,0-.25555-.13535c-.0834-.02016-.24282-.01483-.25741.02264a.78378.78378,0,0,0-.04292.38653c.00693.04635.14279.07349.21982.10939l.23453-.3238c-.00869.117-.02136.23458-.01694.23524.23319.03409.46781.05829.6889.0821l-.15079-.558a.98915.98915,0,0,1,.90387.76219q.44349-1.23267.88594-2.46586c.01145-.032.02488-.08567.00922-.10172-.24681-.25288-.01651-.47923.0315-.7165a.99547.99547,0,0,0-.00477-.22376H76.00672c-.14523.33583-.28638.67353-.43756,1.00667a2.24184,2.24184,0,0,1-.24228.44121A.40044.40044,0,0,0,75.48124,23.37194Z"
        />
        <path
            class="a00340fa-c415-4881-a04d-ff30eb687a17"
            d="M109.663,45.61684c.03174-.12117.0737-.23983.10167-.36177.03419-.14893.12994-.31366-.08444-.41705a.09567.09567,0,0,1-.01921-.09133c.01306-.02417.06966-.05258.08623-.04294.2175.12653.17367-.05271.19254-.11355a1.99459,1.99459,0,0,1-.2765-.04541c-.40107-.12635-.79967-.26059-1.20067-.38713a.46686.46686,0,0,0-.151.00443c.006.039.0114.07809.01811.117.02212.1281.046.25591.06688.38421.03061.18774-.08183.25417-.24038.28537a.08778.08778,0,0,0-.04877.059c-.01338.05807-.045.1479-.0195.17171a.66313.66313,0,0,0,.22439.1133,1.17318,1.17318,0,0,1,.23377.07314.18789.18789,0,0,1-.00922.16664.396.396,0,0,1-.2105.01417c-.10273-.01277-.57034.46573-.50666.52323.22393.2023.055.47118.14711.68958.0336.07958.06972.15811.10469.23712-.04466-.02677-.08871-.05459-.1341-.08-.08966-.05029-.18006-.09925-.27016-.14878l-.08914.34486h1.72111c.00059-.04458-.001-.08934.00218-.13373.01412-.1964.16256-.41539-.10434-.56781-.01667-.00952.02692-.20531.06228-.21214.25679-.04965.21852-.14048.0692-.285-.02792-.027-.0141-.12267.01147-.16983a.14163.14163,0,0,1,.13672-.02741C109.626,45.83194,109.63623,45.71889,109.663,45.61684Z"
        />
        <path
            class="a00340fa-c415-4881-a04d-ff30eb687a17"
            d="M110.33535,45.5056c-.05963-.0264-.08381-.1329-.11858-.19268-.04606.03614-.09786.10671-.13324.09925-.13665-.02875-.20629.01586-.22878.14878-.02095.12385-.11281.25846.08342.34007.03455.01436.04028.13456.03049.20169-.00418.0287-.08229.04659-.12678.06944l-.18064.093a1.1146,1.1146,0,0,1,.10018.13809.3538.3538,0,0,1,.06005.17643c-.00316.03218-.0821.061-.13053.08349a1.456,1.456,0,0,1-.15245.05257q.04254.08772.085.1755.05317.1106.106.22138h.43027c.06837-.16872-.0432-.23611-.15985-.31868a.25424.25424,0,0,1-.05843-.19473c.00151-.02949.08119-.066.13074-.07921a1.17886,1.17886,0,0,1,.2014-.02029c-.043-.0692-.09145-.13571-.12723-.20847a1.748,1.748,0,0,1-.072-.20227c.066-.02131.13177-.04366.19821-.06362.05408-.01623.109-.02959.16354-.04422C110.36846,45.832,110.60235,45.62377,110.33535,45.5056Z"
        />
        <path
            class="a00340fa-c415-4881-a04d-ff30eb687a17"
            d="M84.7381,23.02414c-.15779-.1942-.05667-.37056.04681-.54675a.63775.63775,0,0,0,.11134-.19789c.07324-.52377.06918-.52169.59185-.36248.21808.06643.44025.11951.66058.17866l.019-.076c-.243-.08311-.49068-.1549-.72766-.25261-.22229-.09167-.48973-.15082-.50509-.47094h-.16136c.02919.13545.12034.29715.0761.40146-.14154.33391-.33378.64625-.50434.968a.13869.13869,0,0,0-.00479.07709c.01854.14139.03922.28248.06093.43621Z"
        />
        <path
            class="a00340fa-c415-4881-a04d-ff30eb687a17"
            d="M96.408,21.96469a3.904,3.904,0,0,0,.48129.07953c.04123.04116.07532.10461.12465.12037.54048.17293,1.08463.33451,1.62433.50979a1.0059,1.0059,0,0,1,.23815.16513l-.04461.06453q-1.00812-.30036-2.01628-.60078l-.02912.08438a.83419.83419,0,0,0,.14891.08408c.39943.12883.80138.25,1.20033.38032q.77536.25341,1.54656.51961c.04924.017.08457.07427.12637.11286a.61788.61788,0,0,1-.16014.00912c-.10456-.02121-.20687-.05449-.30921-.08579q-1.61477-.49362-3.23-.9859a.50921.50921,0,0,0-.16713.0082.52717.52717,0,0,0,.12558.10065c.36425.13831.72609.28552,1.09746.40195.77975.24442,1.56531.4703,2.3469.709.05193.01586.09044.07561.1352.115a.48823.48823,0,0,1-.18444.02393c-.26633-.07656-.528-.16968-.79416-.24673a.54446.54446,0,0,0-.18911.01593.58908.58908,0,0,0,.14572.1202c.30647.11525.61663.22075.92487.33143a1.00656,1.00656,0,0,1,.11829.06049c-.05274.01495-.112.05347-.1572.041-.33623-.09245-.6693-.19638-1.0044-.29311a1.16135,1.16135,0,0,0-.18-.0235l-.01645.07036c.06884.02643.137.05486.20663.07889.25244.08707.50674.16885.75768.26.21243.07713.23463.16741.05083.2996a.40918.40918,0,0,1-.31364.02454c-.685-.20849-1.369-.42175-2.04618-.6541-.212-.07273-.55341.01263-.563-.37751-.00034-.014-.04091-.033-.06541-.03942-.13921-.03651-.27926-.06989-.4483-.11156.07965.11166.28736.19275.02949.28425-.00764.00269.00222.06059.00729.0922.026.16249-.09867.37029.14.47248a.39086.39086,0,0,1-.02462.09943c-.29622.88275-.58385,1.76851-.89306,2.64671-.18042.51247-.391,1.01455-.59676,1.51777a2.969,2.969,0,0,0-.34039.80068c-.02689.38663-.31276.72043-.19833,1.12332.00269.00947-.01574.03394-.02814.03732-.1539.04186-.22312.09068-.25853.29643-.04831.28056-.09537.3201.18986.40342l.00025.00035q.06925.04125.13884.08212l-.14183-.0865.06135-.08656.45009.00872.3456.1084-.20925.05207-.13635-.16047q-.225-.00438-.45043-.00818.15853.08762.31777.17416l.26894-.00005.05317.108.32822-.00184-.15815-.16089c.22792.01324.25215.03.23849.16456.1616.06987.33292.21439.48322.19511a2.31293,2.31293,0,0,1,1.10837.199.864.864,0,0,0,.13767.02469l-.11547-.19968a1.00981,1.00981,0,0,1,.24651-.00149c.17387.04153.34333.10141.52294.15637l-.1086.54552a.60921.60921,0,0,1-.2299-.02993.71557.71557,0,0,0-.84651.10442c-.03874.02819-.105.02508-.13408.058-.02461.02787-.01722.08406-.02241.12915a1.88947,1.88947,0,0,0-.889.56087c-.17411.14389-.29715.34866-.46791.49773-.21614.18872-.46019.34516-.68552.524-.042.0333-.087.12088-.07128.15876.07224.174-.06781.21826-.16131.27919-.1165.07591-.24659.131-.39735.20878l.64548.2034-.17893.15421a4.45108,4.45108,0,0,1,2.00006.41559.75827.75827,0,0,0,.32389.05327,8.43556,8.43556,0,0,0,1.16013-.23063c.31048-.09588.62253-.20206.72279-.61647.3488-1.44176.91532-2.81859,1.20537-4.285a29.77365,29.77365,0,0,1,.99348-3.2577c.06994-.218.06451-.35754-.19-.401-.23624-.04035-.23328-.17956-.17252-.36943q.34764-1.08639.67825-2.17818a7.84291,7.84291,0,0,1,1.35083-2.90752H98.00452c.40646.14435.81428.28506,1.21834.43585a1.56266,1.56266,0,0,1,.25858.15712l-.03511.0543-1.21054-.25809c.16628.095.328.19968.50055.28144.10282.04872.22728.05046.33326.0944a.74232.74232,0,0,1,.17154.143.57055.57055,0,0,1-.21067.02432c-.65011-.18938-1.2975-.388-1.94624-.58208-.39212-.11732-.78524-.2313-1.17792-.34678a1.0845,1.0845,0,0,0,.28019.219c.86966.29095,1.74426.5671,2.61613.85157a1.74513,1.74513,0,0,1,.24377.123l-.02491.08029a3.28762,3.28762,0,0,1-.33591-.06585c-.52049-.15738-1.03882-.32189-1.55916-.4798a1.12964,1.12964,0,0,0-.21008-.02347l0,0c-.08707-.039-.17166-.08523-.26162-.11567-.58925-.19944-1.17967-.39545-1.76971-.59256h-.484a1.30016,1.30016,0,0,0,.22985.12622C95.22177,21.60773,95.81347,21.79107,96.408,21.96469Zm-.14433,11.01874a1.2683,1.2683,0,0,1-.09225-.16958c-.03925-.10657-.06857-.21686-.10192-.32548l.59865-.26967c-.09189.25129-.15576.45077-.24016.64111C96.40368,32.91455,96.32,32.943,96.26363,32.98343Zm3.15228-4.06462c-.32106,1.01935-.63638,2.04051-.95531,3.06052-.12208.3904-.25307.778-.37114,1.16962-.03715.12326-.077.18343-.22119.13513-.37311-.125-.7501-.23849-1.12626-.35422-.31433-.09668-.10726-.29663-.08758-.4541.02222-.17787.12069-.20469.28674-.14467.12781.04618.31465.17548.35882-.10632l-.00079,0c.09064-.20592.23472-.28635.50334-.11278-.10826-.20019-.41165-.14061-.2995-.38717.059-.1297.176-.2324.23918-.36087.14467-.29434.4207-.24219.66765-.29145.09439-.01884.24432-.1293.24214-.19368-.007-.20761.24649-.39755.04767-.61661a1.01269,1.01269,0,0,1,.10865-.1144c.13686-.12652.20912-.2472-.04131-.31744-.16141-.04527-.14895-.14051-.1063-.26609.069-.20308.12348-.41106.19148-.6145.0301-.09006.02553-.2451.20125-.15038.00822.00443.042-.0182.04123-.02028-.10441-.29632.13371-.1549.21126-.14494C99.48484,28.65713,99.45844,28.78381,99.41591,28.91881Z"
        />
        <path
            class="a00340fa-c415-4881-a04d-ff30eb687a17"
            d="M65.87929,29.15814c.00639-.03517-.09744-.10616-.16251-.13464a2.33268,2.33268,0,0,0-.30559-.09v.91432c.148.03673.24111.03737.199-.1732-.01468-.07331.08878-.16985.13728-.25635A.927.927,0,0,0,65.87929,29.15814Z"
        />
        <path
            class="a00340fa-c415-4881-a04d-ff30eb687a17"
            d="M92.69733,46.43688c-.0229-.0092-.12242.11212-.1499.18673-.05829.15828-.09243.32544-.13648.489h.43027c.03054-.12754.063-.25466.09115-.38272C92.97422,46.5398,92.82145,46.48675,92.69733,46.43688Z"
        />
        <path
            class="a00340fa-c415-4881-a04d-ff30eb687a17"
            d="M93.74431,21.474c.267.09458.54029.17191.813.24948.13254.03771.26857.06313.403.09411l.02354-.082-1.22835-.43954H93.648C93.67934,21.35752,93.69713,21.45734,93.74431,21.474Z"
        />
        <path
            class="a00340fa-c415-4881-a04d-ff30eb687a17"
            d="M110.80032,46.66932l-.00311-.00359q-.02305.22309-.04581.44685h.21515c.03773-.18671.06614-.37608.11875-.55851.01632-.0566.09828-.09431.15018-.14068V46.3596l-.35316-.08792Zm.189-.18174-.1088.27466-.0796-.09221.15536-.19762Z"
        />
        <path
            class="a00340fa-c415-4881-a04d-ff30eb687a17"
            d="M79.58263,46.77176l-.007-.04136-.07633.27253L79.496,47.002l.00671.11053h.21514l-.13468-.38267Z"
        />
        <path
            class="a00340fa-c415-4881-a04d-ff30eb687a17"
            d="M88.927,29.6521c.16606-.00758.12368.08193.08881.17262-.2038.5303-.40932,1.06-.60871,1.592a.64248.64248,0,0,0-.04429.26117c.03335.47865.07424.95678.11807,1.43459.00587.064.02581.16058.06866.18133a4.52351,4.52351,0,0,0,.49411.18756,3.9545,3.9545,0,0,1,1.23658.4404c.0242.01865.06822.01363.10324.01571.08129.00482.16273.00722.24412.01062l-.16917.24941c.17663-.05117.304-.08959.4323-.12461.06891-.01879.13938-.03171.20915-.0473.00484.07613.0126.15223.01343.22841a1.17513,1.17513,0,0,1-.01485.14166c.04473-.0199.11411-.02824.12982-.06176.05863-.125.06844-.28536.1533-.38329.23583-.27226.50814-.51256.75133-.77892a2.63243,2.63243,0,0,0,.587-1.45779l-.25912.0417a2.67536,2.67536,0,0,1,.00168-.466c.009-.05565.12074-.12764.19141-.13476.36268-.03661.36687-.03541.24153-.38309-.01216-.0337-.02956-.0657-.03947-.1-.06639-.22954-.00857-.30657.26281-.3109-.07627-.20874-.13836-.41353-.228-.60545a.312.312,0,0,0-.20109-.14707c-.04278-.00825-.12972.07789-.155.13882-.07138.17227-.11878.35433-.18017.531-.06194.17822-.12933.35453-.18735.51266a1.86007,1.86007,0,0,0-.24828-.24282c-.10845-.07057-.23573-.11156-.35074-.173-.03788-.02021-.06289-.06445-.09379-.09771.15512-.08051.08909-.33779.33593-.37839.10033-.01649.2149-.22564.23384-.35974.0127-.0899-.01887-.30441-.264-.24909-.10659.02408-.236-.07923-.35842-.09161a1.91872,1.91872,0,0,0-.36542.02946l.00521.05951.34127.092-.187.04644.0023.06105h.418l-.18458.321c-.063-.0601-.12214-.12494-.1898-.17917-.10361-.083-.20974-.16383-.32091-.23619-.1292-.08408-.1997-.03333-.267.10138-.1213.24273.1583.28029.15884.48885-.09032-.07419-.25283-.14479-.25675-.22329a2.4366,2.4366,0,0,1,.09084-.59584.20153.20153,0,0,1,.12972-.00335c.1515.0637.2136-.00514.24678-.14306.023-.09548.059-.18773.086-.28236.03348-.11729.07714-.19185.22812-.14044.04845.01649.12759-.05711.19268-.08949-.03722-.06727-.05912-.1734-.11425-.1951-.24109-.09492-.491-.16814-.73928-.2439-.23659-.07214-.48509-.12331-.58108-.42109-.21686.56772-.40644,1.12486-.59415,1.68262q-.32529.96636-.64756,1.93377c-.03412.10224-.06507.17017.08554.24911.503.26367,1.11325.178,1.59008.50984a.16105.16105,0,0,0,.07833.01566c.13934.00862.28016.00632.41757.02714a.37613.37613,0,0,1,.19427.09955c.02555.025.00227.09989.00107.15223a.80574.80574,0,0,1-.20242-.01216c-.75814-.24493-1.514-.497-2.27251-.7408-.155-.04982-.18629-.11961-.13405-.27693q.66042-1.98832,1.30309-3.9825c.06749-.20983.20163-.2447.3858-.22848.05141.00453.14088.01508.14868-.00374a.32014.32014,0,0,0,.02384-.20362.96343.96343,0,0,0-.13831-.21485c.08207.0335.16408.06714.24632.10023a.20465.20465,0,0,0,.02645.00433q.62148.15552,1.24289.31129c.21426.05361.408.11738.25354.40548-.01505.02807.01018.08136.02572.11927a.09314.09314,0,0,0,.06744-.0013c.06817-.1744.08871-.11159.10334.01786.00039.00345.07779.01006.08244-.00068a1.23484,1.23484,0,0,0,.12226-.34653c.004-.03954-.1183-.11092-.19344-.136-.39905-.13314-.80384-.24943-1.20085-.3881-.086-.03005-.21245-.13133-.20913-.19386a1.46173,1.46173,0,0,1,.12967-.48244c.04821-.11288.15556-.1996.21013-.31094a1.84642,1.84642,0,0,0,.11634-.36848c.01769-.071.04757-.18811.01622-.21233a.40833.40833,0,0,0-.26543-.07963c-.03482.00311-.06779.13557-.0844.21285a3.86969,3.86969,0,0,1-.09947.5175,5.07347,5.07347,0,0,1-.29008.5802c-.02479.04764-.05726.0913-.08618.13681l-.07763-.0344c.19565-.57646.39129-1.15289.58847-1.73382-.25425-.108-.25307-.10762-.35431.203q-.204.626-.41259,1.25042c-.02516.07473-.04853.17416-.10555.21008-.31256.197-.27333.56015-.394.84039a10.37889,10.37889,0,0,0-.37024,1.24857,1.40286,1.40286,0,0,1-.08477.25011c-.127.24989-.05564.62931-.45649.70561-.02685.00511-.05964.06915-.058.10424A.11066.11066,0,0,0,88.927,29.6521Z"
        />
        <path
            class="a00340fa-c415-4881-a04d-ff30eb687a17"
            d="M73.63153,27.177c.0115.03369.11572.06781.16065.05286a.811.811,0,0,1,.8238.11276,6.57548,6.57548,0,0,0,1.44815.56881l.01767-.04328-.23793-.16775.04187-.084a5.64162,5.64162,0,0,1,.73125.32834c.2797.174.52761.39856.79241.59706.26962.20213.35825.16594.43154-.16672a.51768.51768,0,0,1,.03421-.10057c.15649-.34743.31031-.69619.47488-1.03978.0251-.05244.10637-.11966.15254-.11335.22675.03106.44892.09522.67556.12767.29793.04265.59856.0666.898.09859-.25917-.17866-.5209-.35375-.77669-.53711-.20964-.1503-.3271-.10057-.39249.14088a.2657.2657,0,0,1-.237.11293c-.10855-.03783-.35762.02986-.29015-.20558a2.32331,2.32331,0,0,1,.3007-.58815.238.238,0,0,1,.22811-.02016c.21429.14137.413.30637.61886.4635-.05557-.10885-.05917-.18977.09478-.11661.23386.11115.45527.24956.69222.35287.15561.06786.18869.19591.11956.29455-.135.19256-.01438.29186.0924.41033a3.10941,3.10941,0,0,1,.28445.31995c.13116.19405.27219.19926.46235.04456l-.4671-.79094c.24278.12047.48083.23582.71614.35649.13358.06849.233.07334.28875-.0969.24466-.74685.49316-1.49244.74026-2.23848l-.20022.15108a.77222.77222,0,0,1,.01321-.26763c.073-.16819.20044-.31538.25731-.48716.07023-.21219.08477-.44216.13559-.66164.05291-.22855.148-.17379.24581-.02359a4.23579,4.23579,0,0,1,.12218-.43523c.08785-.22334.19741-.43805.28974-.65975.02141-.05142.03274-.156.01057-.16853a4.2009,4.2009,0,0,0-.39912-.18118c-.023.1072-.01214.226-.0658.27715-.21446.20433-.46208.37942-.434.72663a.06688.06688,0,0,1-.02677.045c-.24375.19684-.21216.513-.31777.76789-.15588.37626-.22173.78883-.35184,1.17728-.05058.151-.186.40376-.25812.39549-.36617-.04207-.755.09309-1.10362-.14127a.43043.43043,0,0,0-.60026.01919c-.21177.28571-.41275.24982-.66017.09675a.29215.29215,0,0,0-.07725-.02185.947.947,0,0,1-.31891-.0426,2.203,2.203,0,0,1-.34763-.27263c-.03078.04358-.06756.12815-.093.12485a3.86685,3.86685,0,0,1-.54594-.10576c-.06769-.01892-.1205-.0912-.18008-.13917l.1708-.11613c-.36838-.14514-.36818-.14514-.352.25285a.126.126,0,0,1-.01243.04414c-.21644-.20366-.42845-.43687-.68256-.037a4.44112,4.44112,0,0,0-.45106.69964c-.0983.25124-.21074.55462.09347.78673.02988.02278.01938.11667.00659.17273-.01772.0777-.07846.15025-.08034.226-.00649.25915-.13033.22217-.31291.16315-.89305-.28868-1.78978-.566-2.68628-.84387-.24708-.07659-.24877-.07121-.28183.23484C73.3023,26.88379,73.51879,26.84694,73.63153,27.177Zm4.31975-1.23775c.066.037.10424.12008.165.17027.355.2935.36858.39346.05181.85855a2.31585,2.31585,0,0,0-.71-1.35736C77.72262,25.56446,77.7781,25.84208,77.95128,25.9392Z"
        />
        <path
            class="a00340fa-c415-4881-a04d-ff30eb687a17"
            d="M85.81662,23.5955c-.04787.21339-.134.31-.37186.20666a4.50659,4.50659,0,0,0-.66562-.20714c-.2001-.052-.29916.03474-.24767.20628.16165.5386.321,1.07808.49751,1.61183a.50086.50086,0,0,0,.22063.28,7.23238,7.23238,0,0,0,.75825.26925c.15641.05227.23026-.003.24666-.17254a1.4138,1.4138,0,0,1,.10378-.53708c.16427-.29626.02863-.69105.32683-.93529.0186-.01522.01074-.06906.00714-.10412-.02811-.27292-.05094-.54668-.08961-.81815-.043-.30177-.10091-.60139-.15235-.902l-.05141.00479-.172.44282L86.1641,22.919l.22114-.79364-.0393.00668c-.12265.2731-.25878.54115-.36341.821A4.87277,4.87277,0,0,0,85.81662,23.5955Z"
        />
        <path
            class="a00340fa-c415-4881-a04d-ff30eb687a17"
            d="M93.39,42.53281c.17162.04574.26739.06473.35869.09661.82581.28832,1.64815.58693,2.47824.86218a1.94453,1.94453,0,0,0,.55883.03822.48207.48207,0,0,0,.15515-.05386c.00051.05628-.0023.11288.00289.16875.003.03188.01169.08313.03051.08978a.38133.38133,0,0,0,.154.01375.11292.11292,0,0,0,.01693-.0875c-.22921-.37837.11046-.23979.22873-.22689a.9764.9764,0,0,1,.35644.16522.693.693,0,0,1,.13549.14619l-.17171.08985.00032.08433.258-.03788c-.02085-.09414-.01082-.21935-.06837-.27659a.76118.76118,0,0,0-.63668-.28562c-.04564.00536-.09857-.05129-.14812-.07929a.35216.35216,0,0,0,.04933-.06264c.04821-.10131.14064-.21175.12568-.304-.0135-.08344-.13358-.1804-.2274-.21478-.42767-.15676-.86269-.29335-1.295-.43753-.64412-.21483-1.28564-.43817-1.93462-.63714-.112-.03436-.25567.03421-.38471.0552a2.90588,2.90588,0,0,0,.15033.34122c.03367.05721.11611.08371.16079.13723.02428.0291.01549.08575.02164.13C93.49087,42.17048,93.61838,42.49405,93.39,42.53281Z"
        />
        <path
            class="a00340fa-c415-4881-a04d-ff30eb687a17"
            d="M83.59488,30.446c-.21761-.12967-.391-.34026-.67529-.34623-.28856-.00607-.56478-.03744-.594-.42215-.0022-.02894-.11628-.08621-.14276-.07045-.15972.095-.30865.20805-.462.31386-.0717.04946-.14525.0962-.218.14418l-.03955-.06719-.17313.08136c.04946.04449.09167.10907.14964.13006.2566.09294.51949.16839.7767.25974.23959.08508.54577.00026.71293.27624.00947.01569.05195.00845.07634.01848.38409.15769.76691.31848,1.153.47113.03123.01233.11907-.02589.12135-.047.03017-.27975.04591-.56106.07429-.84106a1.35078,1.35078,0,0,1,.06889-.23932.88485.88485,0,0,0,.16079.06c.02217.004.07471-.03331.0743-.0509-.00267-.11218-.02061-.22389-.02548-.33611-.01793-.41465.268-.70977.4416-1.04235.07087-.13576.01916-.10209-.05014-.14861-.18771-.12607-.2912.09106-.42572.09316-.2808.00438-.24093.15006-.20357.32717.02812.13334-.00726.208-.1684.236-.311.054-.3733.22464-.22726.5223a.21558.21558,0,0,1,.0174.16872.17518.17518,0,0,1-.15483.04136c-.20873-.05166-.17925.07943-.1546.19669.01035.04919.0725.08944.07762.13733a1.00563,1.00563,0,0,1-.02286.222C83.70622,30.505,83.64894,30.47818,83.59488,30.446Z"
        />
        <path
            class="a00340fa-c415-4881-a04d-ff30eb687a17"
            d="M83.882,32.01545c.15135.06467.29083.157.44159.22332.15845.06971.325.12091.48689.183.05208.02.10077.04882.151.0736.0176-.0635.068-.14141.04745-.18822a.85848.85848,0,0,1,.13914-.83413,4.40739,4.40739,0,0,0,.38057-.61962c.18421-.47324.33091-.96133.48579-1.44563.0609-.19045.22909-.44343-.19445-.42469-.02992.00133-.06357-.08129-.12641-.16711-.19648.57017-.381,1.10015-.56128,1.63161-.07351.21678-.13151.44309-.40883.39982a1.43389,1.43389,0,0,1,.03969.30194c-.0141.15987-.05964.3167-.07907.4764-.02011.1654-.07718.19973-.24649.14645-.52624-.16559-1.0594-.3094-1.591-.45755a1.33891,1.33891,0,0,0-.22614-.02412,3.44469,3.44469,0,0,0,.52015.304c.13772.07393.28041.24591.39809.22763.25278-.03925.12744.09286.11643.17374A.74478.74478,0,0,1,83.882,32.01545Z"
        />
        <path
            class="a00340fa-c415-4881-a04d-ff30eb687a17"
            d="M79.446,28.95219c-.06624.14125-.14545.4013-.207.39775a1.137,1.137,0,0,1-.69227-.19361c-.26037-.25768-.57665-.213-.85251-.337a2.132,2.132,0,0,0,.40389.31284c.29147.166.5869.32634.88892.472.157.07569.34428.09191.49553.17543.33767.18651.65914.4021.992.59774a1.84144,1.84144,0,0,0,.27869.11609,7.797,7.797,0,0,1-.41925-.80719,1.85037,1.85037,0,0,1-.06443-.57432c-.0046-.09717.07042-.23213.02794-.28773-.20335-.26616-.43459-.511-.63689-.74172l-.20475.31263c.17472.02959.15639.17729.06411.35556C79.48732,28.81364,79.47626,28.88761,79.446,28.95219Z"
        />
        <path
            class="a00340fa-c415-4881-a04d-ff30eb687a17"
            d="M97.903,39.46222c.07219-.0025.13486-.27916.20208-.43061a1.47617,1.47617,0,0,0,.06514-.14631c.10395-.327.20553-.65474.32979-1.05231a1.69149,1.69149,0,0,0-.34132-.36566c-.29778-.18018-.36745-.14482-.47972.18318-.15832.46247-.30919.92776-.448,1.39637-.02136.07221.0153.22217.06556.24431A1.47349,1.47349,0,0,0,97.903,39.46222Z"
        />
        <path
            class="a00340fa-c415-4881-a04d-ff30eb687a17"
            d="M95.23374,37.501c-.10846.27069-.19251.55166-.27437.832-.01556.05325.00578.163.0396.17734.18837.08019.38582.139.62353.22a1.00054,1.00054,0,0,0,.1191-.19209c.13574-.38373.26555-.76958.394-1.15582.17861-.53711.17848-.54119-.3594-.71271a1.06307,1.06307,0,0,0-.2889-.01013c.00313.12309.01147.24635.00748.36919a.4711.4711,0,0,1-.04116.22748C95.39532,37.34781,95.27191,37.40568,95.23374,37.501Z"
        />
        <path
            class="a00340fa-c415-4881-a04d-ff30eb687a17"
            d="M102.736,31.77341a.62734.62734,0,0,0,.4968-.35358,6.61977,6.61977,0,0,0,.32818-.93074.30032.30032,0,0,0-.11753-.24527,2.5849,2.5849,0,0,0-.39373-.18074c-.243-.116-.32559-.07678-.4114.20712-.09747.32245-.18576.64789-.29213.96733C102.21177,31.641,102.26764,31.73878,102.736,31.77341Z"
        />
        <path
            class="a00340fa-c415-4881-a04d-ff30eb687a17"
            d="M66.80032,26.88367c.0888-.19393.16892-.39185.26-.60947a.6348.6348,0,0,0-.1181-.08021c-.19694-.07875-.39429-.157-.59471-.22626-.477-.16471-.47737-.16243-.65189.30454a.55146.55146,0,0,1-.05521.0914c-.081.13018-.05.21091.10111.25288.316.08777.6302.18233.946.27081C66.72353,26.89745,66.79312,26.89938,66.80032,26.88367Z"
        />
        <path
            class="a00340fa-c415-4881-a04d-ff30eb687a17"
            d="M67.065,27.72237c.0786-.2274.19591-.253.405-.18118.41221.14152.83188.26128,1.24846.39l.06292-.06181c-.07677-.10329-.134-.268-.23355-.2996-.53189-.16879-1.07274-.31082-1.61513-.443-.06668-.01625-.1871.06319-.23614.13158a.79623.79623,0,0,0-.09916.30532c-.02.10045-.06582.263-.02158.29754A.28057.28057,0,0,0,67.065,27.72237Z"
        />
        <path
            class="a00340fa-c415-4881-a04d-ff30eb687a17"
            d="M76.20094,29.31955c-.171-.08078-.38306-.0755-.50744-.25438-.0069-.00988-.03385-.00584-.099-.01487a1.74727,1.74727,0,0,0-.14445.15409c-.08624.11315-.16163.23452-.24759.34787-.09493.12514-.0454.18725.08447.22677.31273.09514.62451.19351.93769.28721a.43429.43429,0,0,0,.12135.00088c-.00646-.04625.004-.10923-.0223-.13588a.30841.30841,0,0,1-.07233-.40448A.21874.21874,0,0,0,76.20094,29.31955Z"
        />
        <path
            class="a00340fa-c415-4881-a04d-ff30eb687a17"
            d="M100.39669,32.79638c-.19447.54261-.37127,1.09156-.55335,1.63862l.08359.06916c.10282-.09231.2436-.1656.30126-.28056.16243-.32382.293-.66381.43-.99992a.34643.34643,0,0,0,.01584-.18269c-.0185-.10337-.05467-.2036-.09811-.35688C100.53977,32.7054,100.41928,32.73334,100.39669,32.79638Z"
        />
        <path
            class="a00340fa-c415-4881-a04d-ff30eb687a17"
            d="M106.55692,26.37965l-.06808-.03607a1.02709,1.02709,0,0,0-.17181.24169c-.09139.2696-.16529.54531-.24064.82011-.08242.30062-.14484.60944-.47527.75663a.91959.91959,0,0,0-.18059.14252.56629.56629,0,0,0,.306-.00913,1.3097,1.3097,0,0,1,.38588-.06781,6.55569,6.55569,0,0,1,.675.14064l.02961-.11137a3.64691,3.64691,0,0,0-.47676-.1827c-.27574-.06533-.2625-.21044-.18317-.43229C106.30558,27.22657,106.42524,26.801,106.55692,26.37965Z"
        />
        <path
            class="a00340fa-c415-4881-a04d-ff30eb687a17"
            d="M87.09477,35.509c.03658-.1064.05943-.21747.087-.32695-.067-.01126-.13517-.01769-.20053-.03489-.09466-.02494-.18764-.05651-.28066-.08722-.28758-.095-.57484-.19087-.91556-.30412-.04342.03972-.13156.08753-.15975.159-.01568.03979.05511.154.10973.17482.41492.158.83508.30251,1.25522.44656C87.02,35.54643,87.088,35.52867,87.09477,35.509Z"
        />
        <path
            class="a00340fa-c415-4881-a04d-ff30eb687a17"
            d="M74.81615,30.50321a2.53707,2.53707,0,0,1,.13594-.41849c.0854-.1746.07556-.2496-.13645-.31822-.21953-.07106-.29414.00712-.34846.186-.05144.16939-.116.33586-.15231.50835a1.9892,1.9892,0,0,0-.01228.35989c-.04292.00725-.11607.00274-.12414.02354-.08981.231-.17115.46539-.24862.70087-.00563.01713.03171.0567.057.07444.26526.18568.44013.10512.489-.21733a3.081,3.081,0,0,0,.07282-.3119.67247.67247,0,0,0-.07348-.22334A.432.432,0,0,0,74.81615,30.50321Z"
        />
        <path
            class="a00340fa-c415-4881-a04d-ff30eb687a17"
            d="M85.35938,37.88925a.44714.44714,0,0,0-.10862-.08947c-.19378-.08816-.15884.095-.19278.17842-.14061.34547-.27057.69528-.40817,1.042-.07473.18833.08814.16882.1793.21938.13745.07618.16463-.014.19087-.115.05141-.19809.10179-.39648.156-.59383C85.23172,38.32788,85.29148,38.12605,85.35938,37.88925Z"
        />
        <path
            class="a00340fa-c415-4881-a04d-ff30eb687a17"
            d="M71.70234,30.155c-.20976-.07131-.40738-.1408-.5466.16342.44593.13941.88461.28195,1.32812.40748a.213.213,0,0,0,.17673-.1133.21033.21033,0,0,0-.09542-.18478C72.28146,30.326,71.98791,30.25205,71.70234,30.155Z"
        />
        <path
            class="a00340fa-c415-4881-a04d-ff30eb687a17"
            d="M93.253,29.19844c.06-.19222.10967-.38769.173-.6161-.03227-.04091-.06839-.131-.12795-.15093-.07285-.02428-.21865-.01767-.24057.02408-.13095.24921-.23558.51227-.34768.77126a.06146.06146,0,0,0,.00115.05056C92.75672,29.34279,93.2281,29.27839,93.253,29.19844Z"
        />
        <path
            class="a00340fa-c415-4881-a04d-ff30eb687a17"
            d="M76.71955,30.39992c-.11142-.02153-.276-.07343-.33241-.02043a.54876.54876,0,0,0-.11758.71819c-.082.0413-.21534.06536-.23617.12727a3.51867,3.51867,0,0,0-.10108.54692l.09908.02212a.03792.03792,0,0,1,.03675.02192c.04234.00607.08467.01217.12649.01853.20839-.16829.39234-.34917.32348-.655.0979-.22374.19929-.44608.28873-.67311C76.81562,30.48405,76.756,30.407,76.71955,30.39992Z"
        />
        <path
            class="a00340fa-c415-4881-a04d-ff30eb687a17"
            d="M110.29825,44.783a.2826.2826,0,0,0-.24588.07463c-.07938.12444-.03056.24031.12512.28643a2.13181,2.13181,0,0,0,.33332.09164.16433.16433,0,0,0,.11087-.04022C110.71824,44.78734,110.4638,44.82062,110.29825,44.783Z"
        />
        <path
            class="a00340fa-c415-4881-a04d-ff30eb687a17"
            d="M95.17777,39.79663l-.03166.109c.50972.16283,1.01893.32723,1.53032.48467.03208.00989.081-.03485.122-.05415a.42357.42357,0,0,0-.09539-.06791c-.33977-.11971-.67906-.24126-1.02206-.35118C95.51723,39.86461,95.34576,39.836,95.17777,39.79663Z"
        />
        <path
            class="a00340fa-c415-4881-a04d-ff30eb687a17"
            d="M88.40815,23.01117c.0648-.243.14007-.4841.18512-.73072.00852-.04671-.1029-.11533-.159-.17386-.0325.04738-.06311.09615-.09783.14181-.105.138.06538.35426-.13359.47752a1.75973,1.75973,0,0,0,.11937.28792Z"
        />
        <path
            class="a00340fa-c415-4881-a04d-ff30eb687a17"
            d="M87.92867,23.9979a2.67947,2.67947,0,0,0,.13618-.25452c.02237-.054-.00325-.14247.031-.17447.26235-.24518.26529-.242.01635-.578-.1085.31709-.20922.599-.29585.88512C87.80821,23.90286,87.88911,23.95662,87.92867,23.9979Z"
        />
        <path
            class="a00340fa-c415-4881-a04d-ff30eb687a17"
            d="M94.42765,38.32815l.09039.0288q.311-.97413.62205-1.94822l-.0948-.03015Q94.73644,37.35339,94.42765,38.32815Z"
        />
        <path
            class="a00340fa-c415-4881-a04d-ff30eb687a17"
            d="M91.78676,33.82427l1.82991.58592.0264-.0937L91.82036,33.72Z"
        />
        <path
            class="a00340fa-c415-4881-a04d-ff30eb687a17"
            d="M84.01345,35.82706l-.10446.0022a2.06321,2.06321,0,0,0-.163.39648c-.00857.04147.11222.15245.181.15928.22567.02248.23188-.1933.26959-.3296C84.21176,36.00039,84.07894,35.90441,84.01345,35.82706Z"
        />
        <path
            class="a00340fa-c415-4881-a04d-ff30eb687a17"
            d="M85.73041,35.66392c-.06771.02493-.17592.03205-.196.07789a5.2659,5.2659,0,0,0-.19789.58222c-.00061.002.06534.02433.10461.0385l-.00032.00166.00074-.00152.00511.00181.00286-.01818.073-.14976-.04939.00005.00093-.006-.00386.006.02055-.07378.03526.06774.13721-.14763-.0009-.00607a.64493.64493,0,0,0,.1211-.18906C85.79662,35.7941,85.75025,35.72575,85.73041,35.66392Zm-.09938.20584-.05134-.00692.03152-.08078Zm.00766.00681.04938.00376-.02728.14617Zm.06779-.0199L85.699,35.865l.0096-.02748A.04918.04918,0,0,1,85.70648,35.85667Z"
        />
        <path
            class="a00340fa-c415-4881-a04d-ff30eb687a17"
            d="M84.17811,33.73505l.65856.20719.02131-.06994-.64739-.20553Z"
        />
        <path
            class="a00340fa-c415-4881-a04d-ff30eb687a17"
            d="M84.204,34.37909l.37513.118.01738-.05043-.37729-.12033Z"
        />
        <polygon
            class="a00340fa-c415-4881-a04d-ff30eb687a17"
            points="87.143 33.23 87.137 33.235 87.137 33.239 87.143 33.239 87.143 33.23"
        />
        <polygon
            class="a00340fa-c415-4881-a04d-ff30eb687a17"
            points="87.248 33.13 87.25 33.125 87.249 33.126 87.246 33.132 87.248 33.13"
        />
        <path
            class="a00340fa-c415-4881-a04d-ff30eb687a17"
            d="M85.03481,33.16131l-.50006-.09419.07892.0614-.0024-.00081c-.03825-.021-.07652-.04194-.1143-.06294-.03656.0417-.07361.0834-.11066.12512l.00693.00078q.02836.076.05711.15177l.21157.00553.00681.05063-.00607-.00308.00007,0-.0001,0,.00627.00438-.21821-.05656-.00034-.0009-.00357-.0001.00548.00519,0,0,.00005,0-.10013.04206.55365.10628.03274.01106-.00272-.00529.06076-.109-.00381-.00074c.00274-.03753.01683-.09245.00151-.10248a1.85871,1.85871,0,0,0-.2218-.11107l.24737.053Zm-.35887.12707.06617.0231-.07422.02868Z"
        />
        <path
            class="a00340fa-c415-4881-a04d-ff30eb687a17"
            d="M87.03261,33.3964l-.00174.00511.00539-.00555.01627.10145.08577-.0464-.00091-.2124-.05156.00022.00218-.00648-.00438.00648.0002-.15086-.14289.31961Z"
        />
        <path class="a00340fa-c415-4881-a04d-ff30eb687a17" d="M87.08953,33.07245l-.00568,0,0,.01549.00474-.01062Z" />
        <path
            class="a00340fa-c415-4881-a04d-ff30eb687a17"
            d="M87.1383,33.07865l.0044-.00649-.00019.15762.1063-.10376.06308-.11866-.021-.2192-.10036.1269-.00844-.07488c-.01762.0059-.04847.00861-.05078.01818-.017.07062-.02858.14257-.04179.21409l.051-.00029Z"
        />
        <path class="a00340fa-c415-4881-a04d-ff30eb687a17" d="M86.656,32.88682l.10287-.20274-.066-.02028Z" />
        <path class="a00340fa-c415-4881-a04d-ff30eb687a17" d="M86.65251,32.908l.0035-.02122-.00847.01669Z" />
        <path
            class="a00340fa-c415-4881-a04d-ff30eb687a17"
            d="M87.1383,33.451l0,.00443.00487-.00707c-.01314.11452.03123.114.1042.05606l-.00162.00475.005-.007.05546.07792.18915-.55568-.11888.00382-.07683.31966q.01945-.12576.03913-.25178a.02116.02116,0,0,1-.02675-.017l-.064.05114-.10789.31983Z"
        />
        <path
            class="a00340fa-c415-4881-a04d-ff30eb687a17"
            d="M86.61651,33.10157l.02814-.17958q-.04581.07935-.09193.15839Z"
        />
        <path class="a00340fa-c415-4881-a04d-ff30eb687a17" d="M86.65266,32.90818l-.00512-.00467-.00289.01848Z" />
        <path class="a00340fa-c415-4881-a04d-ff30eb687a17" d="M86.10613,35.84908l-.04373.13371.11379-.08476Z" />
        <path
            class="a00340fa-c415-4881-a04d-ff30eb687a17"
            d="M85.09855,35.922l-.00523.00543.00521-.00543-.00521.00541.02958-.22258-.0845.27957-.004.00419-.02841.324.0371.00857.11092-.39677-.06037.00306Z"
        />
        <path class="a00340fa-c415-4881-a04d-ff30eb687a17" d="M86.1733,36.002l-.05545.18635.05675.03379Z" />
        <polygon
            class="a00340fa-c415-4881-a04d-ff30eb687a17"
            points="86.118 36.188 86.113 36.185 86.117 36.19 86.118 36.188"
        />
        <polygon
            class="a00340fa-c415-4881-a04d-ff30eb687a17"
            points="85.523 36.197 85.529 36.197 85.526 36.191 85.525 36.192 85.523 36.197"
        />
        <path
            class="a00340fa-c415-4881-a04d-ff30eb687a17"
            d="M78.8883,25.75856l.18468.08516a.0934.0934,0,0,1,.02949-.02929l-.03986-.05969-.16718-.022Z"
        />
        <polygon
            class="a00340fa-c415-4881-a04d-ff30eb687a17"
            points="79.06 25.751 79.063 25.755 79.064 25.755 79.06 25.751"
        />
        <path class="a00340fa-c415-4881-a04d-ff30eb687a17" d="M79.06043,25.75129l.00406.0037.01239-.00316Z" />
        <path
            class="a00340fa-c415-4881-a04d-ff30eb687a17"
            d="M79.1,25.74593l-.02314.0059.00577.0002A.08379.08379,0,0,0,79.1,25.74593Z"
        />
        <path class="a00340fa-c415-4881-a04d-ff30eb687a17" d="M86.11751,36.18991l-.0048-.00467-.0082.04258Z" />
    </g>
</svg>
