<svg xmlns="http://www.w3.org/2000/svg" viewBox="0 0 93.42585 122.03817">
    <defs>
        <style>
            .aa048324-f503-418d-9375-ea22ab130758 {
                fill: #dbdce6;
            }
        </style>
    </defs>
    <path
        class="aa048324-f503-418d-9375-ea22ab130758"
        d="M89.47262,46.95643c.12591,5.32513-1.42592,10.27911-3.46717,15.09559-4.87582,11.50479-11.83628,21.76605-19.17812,31.7803q-8.96073,12.22242-19.03885,23.5526c-.62745.70933-1.01189,1.40834-2.01279.25169C32.6681,102.48926,20.208,86.8733,10.71417,69.11972,7.80153,63.673,5.20584,58.05117,4.30333,51.86479c-1.36483-9.35543.8592-18.04164,5.61644-26.04957a42.28825,42.28825,0,0,1,43.332-20.43889C71.78422,8.49272,85.56843,22.12227,88.83082,40.046A46.6087,46.6087,0,0,1,89.47262,46.95643Zm-21.3439-2.79426A21.46,21.46,0,1,0,46.5742,65.74188,21.44758,21.44758,0,0,0,68.12872,44.16217Z"
    />
</svg>
