<svg xmlns="http://www.w3.org/2000/svg" viewBox="0 0 141.73228 141.73228">
  <defs>
    <style>
      .aeafc352-9475-413c-9043-b85290558162 {
        fill: #dbdce6;
      }
    </style>
  </defs>
  <path
    class="aeafc352-9475-413c-9043-b85290558162"
    d="M122.067,16.11765a3.50791,3.50791,0,0,1,3.50394,3.50394V121.67253a3.50792,3.50792,0,0,1-3.50394,3.504H20.016a3.50792,3.50792,0,0,1-3.50393-3.504V19.62159A3.50791,3.50791,0,0,1,20.016,16.11765H122.067m0-5H20.016a8.50392,8.50392,0,0,0-8.50393,8.50394V121.67253a8.50394,8.50394,0,0,0,8.50393,8.504H122.067a8.50394,8.50394,0,0,0,8.50394-8.504V19.62159a8.50393,8.50393,0,0,0-8.50394-8.50394Z" />
  <path
    class="aeafc352-9475-413c-9043-b85290558162"
    d="M72.296,29.36258,83.89125,52.85713a1.64325,1.64325,0,0,0,1.23727.89893l25.92778,3.76753a1.64326,1.64326,0,0,1,.91072,2.80289L93.2055,78.61444a1.6433,1.6433,0,0,0-.4726,1.4545l4.429,25.823a1.64326,1.64326,0,0,1-2.38429,1.73228L71.5871,95.43227a1.64325,1.64325,0,0,0-1.52935,0l-23.19051,12.192A1.64326,1.64326,0,0,1,44.483,105.892l4.429-25.823a1.64324,1.64324,0,0,0-.4726-1.4545l-18.76152-18.288a1.64326,1.64326,0,0,1,.91072-2.80289l25.92778-3.76753a1.64323,1.64323,0,0,0,1.23727-.89893L69.34886,29.36258A1.64325,1.64325,0,0,1,72.296,29.36258Z" />
</svg>
