<svg xmlns="http://www.w3.org/2000/svg" viewBox="0 0 141.73228 141.73228">
    <defs>
        <style>
            .a120db3e-a7aa-46fd-9802-a046b5897c38 {
                fill: #dbdce6;
            }
        </style>
    </defs>
    <path
        class="a120db3e-a7aa-46fd-9802-a046b5897c38"
        d="M121.733,16.11765a3.5079,3.5079,0,0,1,3.50394,3.504V121.61032a3.50789,3.50789,0,0,1-3.50394,3.50394H19.74423a3.50791,3.50791,0,0,1-3.50393-3.50394V19.6216a3.50792,3.50792,0,0,1,3.50393-3.50395H121.733m0-5H19.74423a8.50393,8.50393,0,0,0-8.50393,8.504V121.61032a8.50393,8.50393,0,0,0,8.50393,8.50394H121.733a8.50393,8.50393,0,0,0,8.50394-8.50394V19.6216a8.50393,8.50393,0,0,0-8.50394-8.504Z"
    />
    <path
        class="a120db3e-a7aa-46fd-9802-a046b5897c38"
        d="M73.9989,31.5754h0m-3.0101,6.09914L79.574,55.07007a6.64209,6.64209,0,0,0,5.00192,3.634l19.197,2.78951L89.88181,75.034a6.642,6.642,0,0,0-1.91059,5.88013l3.27924,19.1194L74.08017,91.00663a6.64313,6.64313,0,0,0-6.18277,0l-17.17029,9.02694,3.27924-19.11938A6.64207,6.64207,0,0,0,52.0958,75.034l-13.891-13.54042,19.19689-2.78949a6.64193,6.64193,0,0,0,5.002-3.63411L70.9888,37.67454m0-9.228a1.624,1.624,0,0,0-1.47357.916L57.92,52.85714a1.64325,1.64325,0,0,1-1.23728.89891L30.75492,57.5236a1.64324,1.64324,0,0,0-.91071,2.80288l18.76151,18.288a1.64322,1.64322,0,0,1,.47259,1.45449l-4.429,25.823a1.63888,1.63888,0,0,0,2.38427,1.73227L70.22412,95.43229a1.64319,1.64319,0,0,1,1.52936,0L94.944,107.62423a1.63889,1.63889,0,0,0,2.38428-1.73227l-4.429-25.823a1.6432,1.6432,0,0,1,.4726-1.45449l18.76153-18.288a1.64325,1.64325,0,0,0-.91073-2.80288L85.29489,53.75605a1.64325,1.64325,0,0,1-1.23727-.89891L72.46237,29.36257a1.624,1.624,0,0,0-1.47357-.916Z"
    />
</svg>
