<svg xmlns="http://www.w3.org/2000/svg" viewBox="0 0 141.73228 141.73228">
    <defs>
        <style>
            .ac2fde35-5302-4e20-a8f9-1ebf8714ecab {
                fill: #dbdce6;
            }
        </style>
    </defs>
    <path
        class="ac2fde35-5302-4e20-a8f9-1ebf8714ecab"
        d="M119.26484,43.10716l-2.86633,15.92575-2.27857,12.65967-1.093-1.108-2.66407-2.70056a7.9027,7.9027,0,0,0-11.21692-.03259L75.79182,91.23625l-3.71008,3.71494L57.17915,79.98409a7.90261,7.90261,0,0,0-11.19593-.00269l-9.05407,9.08185-9.15967,9.1879-2.50964-2.5286L22.82978,93.274l1.78369-1.78387L51.77424,64.32793l5.40869,5.42413,8.92517,8.95069A7.90071,7.90071,0,0,0,77.298,78.701l6.61768-6.63721,9.66736-9.696a7.90082,7.90082,0,0,0-.03137-11.19085l-1.93543-1.91782-1.00012-.991,28.64868-5.16095m2.60925-5.50332a2.9547,2.9547,0,0,0-.524.04721C109.483,39.78887,97.69184,41.913,85.75862,44.0627a2.902,2.902,0,0,0-1.52784,4.91718q2.97291,2.9457,5.80164,5.74871a2.90089,2.90089,0,0,1,.00976,4.10907c-5.47656,5.49271-10.86608,10.89823-16.28491,16.333a2.90063,2.90063,0,0,1-4.10852.00159C64.39753,69.906,59.0915,64.585,53.8299,59.30834A2.901,2.901,0,0,0,49.724,59.307Q33.62055,75.41138,17.81428,91.21843a2.89776,2.89776,0,0,0-.00745,4.09247q3.86773,3.89716,7.89868,7.95859a2.90118,2.90118,0,0,0,4.1139.00735Q39.6073,93.4589,49.52412,83.51152a2.90266,2.90266,0,0,1,4.11181.0004c5.41285,5.43622,10.82459,10.87137,16.38685,16.4577a2.90345,2.90345,0,0,0,4.11071.0029c9.52307-9.53561,18.97376-18.99878,28.5503-28.58783a2.90275,2.90275,0,0,1,4.11963.01077q3.2752,3.32007,6.59826,6.68875a2.85508,2.85508,0,0,0,2.05188.86683,2.89492,2.89492,0,0,0,2.87036-2.3895c2.13672-11.87131,4.25733-23.654,6.39661-35.53955a2.90445,2.90445,0,0,0-2.84644-3.41815Z"
    />
</svg>
