<svg xmlns="http://www.w3.org/2000/svg" viewBox="0 0 141.73228 141.73228">
    <defs>
        <style>
            .f0d39c14-89f6-484e-87fc-a4d9d0052fc3 {
                fill: #dbdce6;
            }
        </style>
    </defs>
    <path
        class="f0d39c14-89f6-484e-87fc-a4d9d0052fc3"
        d="M113.40164,78.08421l-6.59824-6.68876a2.9028,2.9028,0,0,0-4.11967-.01077C93.10729,80.97373,83.65655,90.4369,74.13344,99.97253a2.90335,2.90335,0,0,1-4.11061-.0029C64.46051,94.38327,59.04877,88.94815,53.636,83.51192a2.90266,2.90266,0,0,0-4.11184-.0004L29.81946,103.27685a2.90117,2.90117,0,0,1-4.11392-.00737L17.8068,95.31091a2.89784,2.89784,0,0,1,.00754-4.09247L49.724,59.307a2.90108,2.90108,0,0,1,4.10594.00133C59.09154,64.585,64.39749,69.906,69.6488,75.1723a2.90055,2.90055,0,0,0,4.10847-.0016c5.4188-5.43482,10.80836-10.84033,16.28487-16.333a2.90078,2.90078,0,0,0-.00975-4.10906l-5.80161-5.74872a2.902,2.902,0,0,1,1.52787-4.91717l35.59142-6.41165a2.90276,2.90276,0,0,1,3.37042,3.37093c-2.1392,11.88553-4.25989,23.66825-6.39653,35.53955A2.90215,2.90215,0,0,1,113.40164,78.08421Z"
    />
</svg>
